<?xml version="1.0" encoding="UTF-8" standalone="no"?>
<!-- Generator: Adobe Illustrator 9.0, SVG Export Plug-In  -->
<!-- This set of SVG files is a complete cards game with figures, numbers	-->
<!--    and backs of cards completely designed in SVG.				-->
<!--    									-->
<!--    Copyright (C) 2004 David Bellot						-->
<!--										-->
<!--    This library is free software; you can redistribute it and/or		-->
<!--    modify it under the terms of the GNU Lesser General Public		-->
<!--    License as published by the Free Software Foundation; either		-->
<!--    version 2 of the License, or (at your option) any later version		-->
<!--										-->
<!--    This library is distributed in the hope that it will be useful,		-->
<!--    but WITHOUT ANY WARRANTY; without even the implied warranty of		-->
<!--    MERCHANTABILITY or FITNESS FOR A PARTICULAR PURPOSE.  See the GNU	-->
<!--    Lesser General Public License for more details.				-->
<!--										-->
<!--    You should have received a copy of the GNU Lesser General Public	-->
<!--    License along with this library; if not, write to the Free Software	-->
<!--    Foundation, Inc., 59 Temple Place, Suite 330, Boston, MA 02111-1307  USA-->
<!--										-->
<!--    Contact the author David Bellot at bellot@stat.berkeley.edu or 		-->
<!--    david.bellot@free.fr or yimyom@users.sourceforge.net			-->
<svg
   xmlns:dc="http://purl.org/dc/elements/1.1/"
   xmlns:cc="http://web.resource.org/cc/"
   xmlns:rdf="http://www.w3.org/1999/02/22-rdf-syntax-ns#"
   xmlns:svg="http://www.w3.org/2000/svg"
   xmlns="http://www.w3.org/2000/svg"
   xmlns:sodipodi="http://sodipodi.sourceforge.net/DTD/sodipodi-0.dtd"
   xmlns:inkscape="http://www.inkscape.org/namespaces/inkscape"
   width="208"
   height="303"
   viewBox="0 0 167.08643 242.66699"
   xml:space="preserve"
   id="svg2"
   sodipodi:version="0.32"
   inkscape:version="0.45.1"
   sodipodi:docname="Card_back_10.svg"
   inkscape:output_extension="org.inkscape.output.svg.inkscape"
   sodipodi:docbase="C:\Documents and Settings\Flanker\Desktop"
   version="1.0"><metadata
   id="metadata152"><rdf:RDF><cc:Work
       rdf:about=""><dc:format>image/svg+xml</dc:format><dc:type
         rdf:resource="http://purl.org/dc/dcmitype/StillImage" /></cc:Work></rdf:RDF></metadata><defs
   id="defs150" /><sodipodi:namedview
   inkscape:window-height="573"
   inkscape:window-width="791"
   inkscape:pageshadow="2"
   inkscape:pageopacity="0.0"
   guidetolerance="10.0"
   gridtolerance="10.0"
   objecttolerance="10.0"
   borderopacity="1.0"
   bordercolor="#666666"
   pagecolor="#ffffff"
   id="base"
   width="208px"
   height="303px"
   inkscape:showpageshadow="false"
   inkscape:zoom="1.2428555"
   inkscape:cx="104.42902"
   inkscape:cy="151.66687"
   inkscape:window-x="277"
   inkscape:window-y="239"
   inkscape:current-layer="svg2" />
	<g
   id="Layer_x0020_1"
   style="fill-rule:nonzero;stroke:#000000;stroke-width:0.9984901;stroke-miterlimit:4"
   transform="matrix(1,0,0,1.0030266,0,-0.367228)">
		<path
   style="fill:#fe9f34;stroke-width:0.49924505"
   d="M 166.83643,235.54785 C 166.83643,239.3252 163.75049,242.41699 159.96631,242.41699 L 7.1113281,242.41699 C 3.3364258,242.41699 0.25,239.3252 0.25,235.54785 L 0.25,7.1201172 C 0.25,3.3427734 3.3364258,0.25 7.1113281,0.25 L 159.96631,0.25 C 163.75049,0.25 166.83643,3.3427734 166.83643,7.1201172 L 166.83643,235.54785 L 166.83643,235.54785 z "
   id="path5" />
		<g
   style="stroke:none"
   id="g7">
			<path
   d="M 117.12842,16.370117 C 114.1665,18.509277 109.57568,22.854492 107.40381,25.360352 C 107.97412,25.407715 108.55029,24.945313 109.18506,24.82959 L 113.54053,23.416992 C 111.78662,25.049805 108.06787,27.960938 107.06201,30.15332 C 108.41553,29.59668 111.22412,27.820313 112.65576,27.611816 C 111.4585,28.802246 108.94873,31.072754 108.19873,32.473633 C 108.30029,32.51416 108.23779,32.636719 108.25732,32.71875 C 109.30615,32.057129 111.84912,30.337402 113.03467,30.167969 C 111.87647,31.521973 109.75147,34.123535 109.34522,35.813477 C 110.37256,35.049805 112.9751,33.473633 114.12451,32.976562 C 113.89209,33.646973 113.32568,34.165527 112.9751,34.842285 C 112.4917,35.77832 111.28857,36.87793 111.29834,37.959473 C 112.18604,37.03125 113.30322,36.193848 114.43311,35.513184 C 113.97217,36.631348 113.06592,37.583496 112.87451,38.895508 C 113.59717,38.10791 115.02197,37.643066 115.98584,37.246094 L 115.87354,37.367187 C 115.79248,37.442383 114.72803,38.293945 114.021,39.21875 C 114.68896,39.141602 114.18506,39.085937 115.05225,39.231445 L 115.51807,39.228027 C 114.22021,40.007812 112.22803,41.234375 111.01025,42.121094 C 111.74756,42.006836 112.73193,41.916504 113.56885,41.986816 C 111.92334,42.786133 110.17529,43.421875 108.72998,44.59082 C 109.58936,44.601562 110.59326,44.551758 111.38818,44.867187 C 109.78467,45.400879 108.20264,45.99707 106.88037,47.12793 C 107.94482,46.99707 109.33936,46.787598 110.41943,47.167969 C 108.77881,47.579102 107.2749,48.318848 105.93311,49.428711 C 106.896,49.337402 108.24756,49.189941 109.26807,49.40625 C 109.39014,49.448242 109.71826,49.32959 109.86084,49.514648 C 108.03076,50.189941 106.16357,50.721191 104.57275,52.012695 C 105.26904,51.916992 106.22998,51.989746 107.06982,51.979492 L 107.17041,52.083008 C 105.19873,52.714844 103.2085,53.223633 101.396,54.287598 C 102.19092,54.501465 103.09131,54.450195 103.84521,54.745117 C 102.26318,55.36084 100.68115,55.9375 99.356933,57.149414 C 100.38135,57.039062 101.54932,56.928711 102.65479,56.839844 L 102.73584,56.942871 C 101.13232,57.600098 99.646973,58.605469 98.343262,59.899902 C 99.284668,59.890625 100.271,59.532715 101.29248,59.688965 C 99.66748,60.40625 98.020996,61.206055 96.635254,62.479492 C 97.700684,62.368652 98.808105,62.115723 99.975098,62.17041 L 99.974121,62.271973 C 97.770996,63.412598 95.468262,64.287598 93.564941,66.168945 C 94.608887,66.078125 95.878418,66.010254 97.046387,65.921875 L 97.146973,66.024902 C 95.497558,67.192383 93.70459,68.195313 92.335449,69.837402 L 95.983887,69.20459 L 95.983887,69.286133 C 94.478027,70.290527 92.752441,70.926758 91.528809,72.344727 C 92.636231,72.15332 93.904785,72.126465 95.112793,72.037598 L 95.111816,72.140625 C 93.155762,73.141602 91.239746,74.407715 89.70459,76.231934 C 90.729004,76.081055 91.716309,75.55957 92.763184,75.306152 C 93.23584,75.229492 93.748535,75.071777 94.198731,75.07666 C 92.772949,76.226562 91.120606,77.599121 90.159668,79.18457 C 90.198731,79.348633 90.096191,79.450195 90.054199,79.592285 C 91.061035,79.195312 92.190918,78.819336 93.259277,78.442383 C 92.060059,79.512695 90.490723,80.723633 89.532715,82.18457 C 90.249512,82.09082 90.888184,81.8125 91.60498,81.717773 C 91.622558,82.024902 91.275879,81.817383 91.11084,81.999023 C 89.790527,82.904785 88.411621,83.645508 87.210449,84.79834 C 87.989746,84.664063 88.974121,84.511719 89.853027,84.583008 C 88.290527,85.260742 86.646973,85.73291 85.063965,86.411133 C 85.79834,86.624023 86.69873,86.612305 87.474121,86.82666 C 86.060059,86.995117 84.666504,87.163086 83.331543,87.556152 C 84.144043,88.037598 85.209473,87.967285 85.938965,88.52832 L 83.521484,88.88916 C 83.782715,89.301758 84.167481,89.674805 84.489746,90.087402 C 83.608887,90.077148 82.568848,89.84082 81.75,89.851562 C 81.970703,90.263184 82.456543,90.635742 82.65625,91.088867 C 81.674316,91.118652 80.695313,90.801758 79.672852,90.768555 L 80.255859,91.757812 C 79.498535,91.749023 78.702637,91.535156 77.884766,91.524902 L 78.283203,92.47168 C 73.339355,93.458008 68.07666,93.786621 62.842285,93.459961 L 50.962891,92.646973 C 40.63916,91.751465 30.968262,89.265625 22.285156,84.541504 C 20.319824,82.881347 17.59375,81.479004 16.640625,78.930664 C 17.533203,83.176758 20.748047,86.528808 23.882324,89.819336 C 30.623535,96.07666 38.796387,98.953125 47.074219,101.5249 C 50.373535,102.9126 53.945312,103.73145 57.455078,104.59082 L 68.721191,107.09521 C 74.376953,108.30469 80.359375,107.6377 85.913574,106.80176 L 88.929199,106.1001 C 88.663574,107.91699 87.274902,109.39551 86.661621,111.12793 L 87.631348,115.80469 L 85.786621,117.8501 L 85.724121,119.75146 C 86.16748,120.26855 86.302246,121.00781 86.728027,121.44238 C 87.20459,120.8125 87.159668,119.4209 88.282715,119.59863 L 88.362793,119.74219 C 88.411621,120.86719 88.213379,122.09229 88.487793,123.12012 L 89.644043,124.03223 L 96.181152,123.26855 L 101.22217,124.30957 C 103.17139,123.84082 105.72412,124.38281 106.75146,122.2041 C 107.14307,121.98291 107.56982,122.21387 107.979,122.21875 C 108.42725,122.40723 108.8335,122.67969 109.30225,122.78613 L 109.30615,122.54004 L 108.06396,120.21387 C 107.30713,120.20605 107.56201,119.37012 107.38428,118.91699 C 106.79053,118.82812 106.34717,118.20947 105.66943,118.46875 L 104.2124,117.07959 C 102.90088,117.20801 101.62451,117.88916 100.27881,117.46484 C 99.812012,117.09082 98.663574,117.28271 98.880371,116.32324 L 98.149902,115.78223 C 98.13623,115.20947 98.081543,114.57422 97.471191,114.34228 L 97.32959,114.19678 C 97.519043,111.8877 98.503418,109.93457 99.162598,107.83447 C 100.82373,103.98584 104.07178,100.83105 106.60889,97.36084 C 110.63135,96.323242 114.37646,94.524902 117.90186,92.23291 C 118.46826,96.290527 120.88623,99.592285 122.68701,103.13281 C 122.86182,103.97363 122.74756,104.9751 122.75928,105.79394 C 123.65771,107.76855 124.78076,109.64355 125.88525,111.51855 C 125.97217,112.78809 125.55225,113.80615 125.06982,114.80322 L 125.48389,116.17969 L 127.63525,117.67676 C 127.68311,117.02344 127.38525,116.30322 127.35303,115.56543 C 127.74463,115.36572 128.13232,115.37012 128.24951,115.88379 C 128.42139,116.86719 129.78076,117.86572 128.70654,118.87646 C 128.6499,120.24707 128.90186,121.49853 128.98779,122.80762 L 129.63818,123.26562 C 131.31787,123.08105 132.93896,122.73144 134.59912,122.48437 C 137.07178,122.84082 139.56201,123.27832 142.09912,123.34863 L 144.07275,122.53125 L 144.72412,121.12646 L 145.90771,121.28418 C 146.35498,121.59668 146.75928,122.03125 147.22607,122.28125 C 146.97021,121.54199 147.29053,120.31787 146.20947,119.9585 L 146.02881,119.77197 C 147.0376,119.14844 147.6792,120.24072 148.47412,120.57812 C 148.43896,120.0249 148.28271,119.40918 148.146,118.85449 L 147.06982,118.06543 C 147.12842,116.55176 145.34912,116.53125 144.646,115.37646 C 143.7124,114.6709 142.8042,115.35644 141.94092,115.73437 C 140.95947,115.68262 139.89307,115.85449 139.10107,115.35449 C 139.12646,114.80176 138.96826,114.39062 138.48193,114.0791 L 138.42725,113.34131 C 136.61182,111.13135 135.16553,108.74072 135.28271,105.73437 C 135.18506,101.76269 134.80029,97.890625 133.90088,94.237304 C 133.2749,91.713867 132.73193,89.149902 132.02295,86.645507 C 132.15967,85.561523 132.37842,84.336914 132.104,83.270507 C 130.88916,82.109375 129.50635,81.356445 128.2085,80.420898 C 129.44678,77.754882 130.62256,75.067382 131.45459,72.212402 L 132.5542,69.032714 C 132.08936,64.975586 131.77197,60.633789 132.26904,56.444336 C 132.51709,56.345214 134.45264,55.642089 134.75342,55.624023 C 135.28271,56.360839 135.65967,57.225097 135.39014,58.210937 C 135.00342,58.206054 134.59912,57.85791 134.17041,57.745117 C 134.44482,58.306152 134.86865,58.827148 134.77295,59.557129 C 134.47412,59.489257 134.30713,59.036132 134.05029,58.881836 L 134.24756,60.475097 C 134.82178,60.932617 135.6167,60.92041 136.39014,60.907714 L 136.18311,62.151367 C 135.75342,62.061035 135.3501,61.712402 134.94482,61.40625 C 134.81104,61.834472 135.15088,62.204101 135.25537,62.592285 L 134.74072,62.463378 C 134.86182,63.087402 135.34717,63.860839 135.68311,64.401367 L 136.92529,64.888183 L 139.40967,63.670898 C 140.08936,62.454589 140.23584,61.017089 140.53076,59.623535 C 140.08936,58.71582 139.32568,57.954589 138.7124,57.131347 L 138.94385,55.629882 L 140.29248,54.206054 C 139.83057,53.298339 140.17334,51.583007 138.55811,51.757812 L 132.66748,52.09082 C 132.44873,51.617187 132.70068,50.96582 132.48193,50.513183 C 131.90771,48.807617 131.80713,46.903808 131.06885,45.237304 C 132.20264,42.79541 131.28857,38.779785 134.45264,36.959472 C 136.58154,35.709472 136.79639,35.07666 139.34717,35.407714 C 140.7251,35.585937 143.76416,36.436035 145.17725,36.043945 C 146.47217,35.221679 147.10303,34.856445 148.23682,33.890625 C 148.37061,33.359375 149.47998,33.210937 149.58057,32.537597 C 149.00928,32.53125 147.33936,32.181152 147.021,31.421875 L 146.57178,31.354492 L 145.28467,32.186523 L 144.95654,31.125 C 144.46436,31.404785 144.37451,31.461914 143.88037,31.823242 C 143.70264,31.351563 143.66748,30.973633 143.55029,30.460938 C 143.13916,30.72168 142.79639,30.363281 142.32568,30.583008 L 142.03076,30.0625 C 141.64014,30.303223 140.88623,30.635742 140.4624,30.845215 C 140.26123,30.556152 140.45068,30.130371 140.33154,29.821777 C 139.86084,30.020996 139.46826,30.384277 138.99561,30.583008 C 138.87646,30.336914 138.56982,29.693848 138.53076,29.407227 C 138.28467,29.547852 137.83545,29.804687 137.46631,29.922852 C 137.28467,29.737305 138.36279,29.59082 138.24463,29.384277 L 137.29053,29.775879 L 137.09717,28.75293 L 135.85498,29.181152 C 135.78857,28.501465 136.00244,30.509277 135.87061,29.651367 C 136.11475,29.600098 136.23975,29.081055 136.68896,29.00293 L 137.31494,30.723633 C 137.47217,30.725586 138.35107,29.364258 138.25244,29.80957 L 138.44678,30.34668 C 138.47607,30.420899 138.65186,30.654785 138.82275,31.65332 C 139.62842,31.111816 139.40967,31.202148 140.20166,30.601563 C 140.39795,31.429688 140.34131,31.39209 140.31592,31.846191 L 140.48975,31.813965 C 141.09912,31.28125 141.56104,31.345215 142.22119,30.790039 C 142.30713,31.151367 142.1499,31.774902 142.3042,32.092285 L 143.55225,31.453125 C 143.70459,31.950684 143.60303,32.226562 143.70654,32.712402 L 145.01904,31.424316 C 145.39697,31.901367 145.15381,32.631348 145.29834,33.258789 C 145.81396,32.828125 146.34229,32.070312 146.80029,31.53418 C 146.92822,32.167969 146.53662,32.84082 146.77881,33.429687 C 147.23193,33.276367 147.79053,33.061035 148.22119,32.84082 C 148.39697,33.248535 147.25732,33.462402 147.41162,33.870117 C 149.42139,34.181152 149.93115,34.092773 150.4751,33.199219 C 150.04639,33.875976 151.23291,30.606445 151.74365,29.371094 L 151.74951,28.717285 C 151.10693,27.112305 151.09521,24.30957 150.79248,23.921875 C 148.82373,21.532715 142.15967,21.490723 138.98193,18.37793 C 139.40869,16.728027 138.26318,15.446777 137.11475,14.489258 C 135.40771,13.395508 133.16553,14.056152 131.43994,14.637695 C 129.42334,14.334961 127.54053,13.73291 125.56885,13.28125 C 121.2251,13.067871 117.12842,16.370117 117.12842,16.370117 L 117.12842,16.370117 z "
   id="path9" />
			<path
   style="fill:#fb0f0c"
   d="M 129.86475,17.09082 L 128.46045,17.698242 C 128.271,17.373535 128.68311,17.03418 128.8374,16.713867 C 128.94775,16.479492 129.29248,16.333008 129.36084,16.053711 C 127.49365,15.859375 125.69678,15.06543 123.73779,15.473633 C 121.64307,15.90918 120.45459,16.760254 119.2876,17.762695 C 118.69092,18.122559 118.41943,18.603027 117.84326,19.026367 C 117.14795,19.70459 116.89795,20.99707 116.729,21.25 C 117.76318,20.748535 118.83057,20.759277 119.53662,20.48584 C 116.92139,22.273437 116.61865,25.51416 117.50732,28.157715 L 117.46631,28.21875 C 116.53076,27.737305 116.21631,26.774902 115.92041,25.93457 C 115.771,26.504883 115.78271,27.21875 115.69385,27.851562 C 115.39014,27.602539 115.21045,27.23291 115.03076,26.904785 C 114.87646,29.759277 116.41748,31.99707 118.2749,34.146973 C 119.51904,35.588379 117.29639,36.70166 117.93115,38.55957 L 120.65967,38.26709 C 121.00537,38.120117 120.89795,38.171875 120.89795,38.171875 C 120.28271,39.54541 116.70654,40.748535 116.04932,41.549805 C 116.25244,41.696777 119.39307,40.571777 120.55029,40.317383 L 115.61572,43.648438 C 115.9624,43.733398 117.26904,43.615723 118.01318,43.470215 C 117.28857,44.157715 114.79834,45.120117 114.13428,45.911133 L 116.45459,45.498535 L 112.69092,48.60791 C 112.81787,50.123535 112.42529,50.629883 111.24854,51.597656 C 109.24072,53.518555 106.7915,54.779785 105.25146,57.115723 C 104.22217,59.313477 103.41748,61.616211 102.1665,63.709473 C 103.76514,63.379883 105.24854,62.600098 107.04541,62.946777 C 112.04248,64.375977 115.87842,65.320313 118.59717,69.035156 C 119.8335,70.09375 120.59717,71.390625 121.93896,72.143555 L 126.37842,77.536133 L 126.55811,77.885742 C 127.87646,75.342285 126.50928,70.875 126.48389,67.723633 C 126.521,67.541992 127.72021,69.303711 127.82275,69.26416 C 128.45264,71.470215 128.87744,72.317383 128.58154,69.825195 L 127.41748,64.907715 L 129.26709,67.370117 C 129.60889,67.885742 129.83838,67.833008 130.26123,68.370117 C 131.0874,67.725098 130.2124,66.81543 130.18115,65.976562 C 129.82666,64.723633 129.09326,65.087402 128.25146,63.51709 L 125.63232,60.208008 L 129.50732,61.54541 C 129.23193,60.498535 129.53369,61.914062 129.0542,60.683594 L 125.54541,56.549804 L 130.08545,58.109375 C 130.0376,57.004883 130.03662,58.300781 129.70068,57.314941 C 129.29541,56.942383 128.26904,57.196289 128.27881,56.35791 L 127.85498,55.861816 C 127.43994,54.649414 126.90088,53.415527 126.854,52.125976 L 127.32373,50.493652 C 127.87451,48.904785 129.09522,49.512695 130.04053,49.154785 C 129.69092,47.493652 128.99365,45.929687 129.01318,44.190429 C 129.64209,42.888183 130.55811,40.690429 130.33545,39.484375 L 131.01514,38.354004 C 130.04443,38.643554 129.07373,39.083496 128.35498,39.912597 C 128.10303,39.459472 128.43115,38.882812 128.58545,38.433593 C 129.04834,37.514648 130.04248,36.989258 130.82275,36.439941 L 129.08936,35.796875 C 128.15967,34.411133 126.4751,33.317383 126.34326,31.63916 L 126.75146,31.751465 C 128.38623,33.381347 130.65576,34.654785 132.86084,34.63916 C 131.35693,34.592285 139.06104,33.296875 138.57178,32.680664 C 139.45654,33.792969 141.97217,34.148437 143.82373,34.660156 C 144.64404,34.323242 145.01318,34.387695 145.61182,33.803222 C 145.32959,33.534179 144.90381,33.324219 144.49756,33.198242 C 142.07373,32.679687 136.36963,31.842285 135.03271,29.614258 C 134.85498,30.602539 135.82373,31.359375 136.90381,32.137695 L 134.65771,31.948242 C 130.64209,30.382812 130.95654,27.321777 131.6665,24.390625 L 132.09131,26.784179 L 132.9292,28.057617 C 134.25537,25.402344 133.50732,25.762695 130.38818,22.438476 L 132.646,23.147461 C 133.69873,23.887695 135.43311,25.171875 136.95654,26.046875 C 141.05811,28.373535 143.11084,29.950195 148.16553,30.03125 L 149.73682,30.286133 C 150.68896,27.418945 148.42041,24.936035 149.271,28.82959 C 148.39795,27.898437 147.54639,27.039062 147.68701,26.521972 C 147.37647,26.112304 148.80225,24.973633 148.65088,24.49707 C 147.12061,23.131347 140.79248,22.686035 137.20459,19.561035 C 137.13428,20.118652 138.88818,21.460937 139.20459,21.9375 C 135.81982,22.146972 133.771,21.237304 133.35303,20.186035 C 133.26904,20.011719 133.31982,19.213867 133.66748,18.939941 C 134.14307,18.665527 134.59912,18.262695 135.15869,18.182617 C 134.2417,17.52832 133.17725,18.524902 132.42041,18.989258 C 131.86865,20.034179 132.87061,21.114258 133.03271,21.932129 C 132.19678,21.771972 131.00732,20.412597 130.82373,19.529785 C 129.57568,19.729492 128.41553,19.631347 127.41357,18.975097 C 128.25537,18.748535 129.11865,18.39209 130.00146,18.188476 C 132.30811,17.570312 134.63525,15.104492 137.0874,16.808593 L 135.91943,15.506347 C 133.7085,15.395508 131.84912,16.490722 129.86475,17.09082 L 129.86475,17.09082 z "
   id="path11" />
			<path
   d="M 122.2251,18.521973 C 121.63623,19.26709 121.04639,20.012695 120.95068,20.978027 L 121.09912,21.131348 C 121.4917,20.618652 122.09717,20.174805 122.65967,19.859375 C 122.71338,20.868652 123.43311,21.823242 124.35107,22.263184 L 124.50146,22.265625 C 124.25635,21.209473 124.31396,19.899902 124.69092,18.915527 C 125.34229,18.321777 126.22607,18.053223 126.771,17.436035 C 125.31201,17.182617 123.95459,17.532715 122.74561,18.054687 L 122.2251,18.521973 L 122.2251,18.521973 z "
   id="path13" />
			<path
   style="fill:#ffffff"
   d="M 136.85693,20.731445 C 136.22217,19.963867 135.34717,19.367188 134.28271,19.51416 C 134.34521,20.499023 135.75342,21.001465 136.85693,20.731445 z "
   id="path15" />
			<path
   d="M 128.31104,21.305664 C 127.38623,21.42334 126.5249,21.629883 125.66162,21.898438 C 126.06592,22.225098 126.56006,22.316406 126.94287,22.62207 C 125.81982,23.103027 124.63428,23.433594 123.67822,24.34668 L 123.89209,24.456055 C 125.72412,23.983398 127.91553,23.900879 129.86865,24.203125 L 129.97607,24.118652 L 128.75244,22.192383 L 130.45459,21.739258 C 129.49756,20.95459 128.40967,20.19043 127.18896,19.896973 C 127.39795,20.37207 127.9292,20.82959 128.31104,21.306152 L 128.31104,21.305664 L 128.31104,21.305664 z "
   id="path17" />
			<path
   d="M 135.14014,22.943848 C 136.06201,23.061035 137.07275,23.029785 137.93506,22.825195 C 136.45947,22.185059 134.63037,22.421875 133.41943,21.225586 C 133.67041,21.873535 134.19482,22.911133 135.14014,22.943848 z "
   id="path19" />
			<path
   d="M 121.73779,28.707031 C 122.15479,29.807617 121.021,31.234375 122.04053,32.212402 C 122.91162,33.103027 123.95654,33.825195 124.9585,34.459473 L 124.85498,34.114746 C 123.94287,33.179688 123.09522,32.13916 122.63623,30.995117 C 123.6626,31.286133 124.75342,31.707031 125.91357,31.806152 C 124.51709,29.984375 122.04443,28.301758 122.8042,25.668945 C 122.83057,25.239258 123.39307,24.880371 123.22607,24.491211 C 121.92432,25.571777 121.43506,27.092285 121.73779,28.707031 L 121.73779,28.707031 z "
   id="path21" />
			<path
   style="fill:#ffffff"
   d="M 139.60107,29.237305 C 139.48584,29.461914 139.54834,29.77832 139.52295,30.04834 C 139.79639,29.893555 139.97998,29.57959 140.25342,29.446777 C 140.16357,29.289063 139.80322,29.307129 139.60107,29.237305 z "
   id="path23" />
			<path
   style="fill:#ffffff"
   d="M 141.33154,30.822754 L 141.87842,30.242188 C 141.74561,30.149902 141.56787,30.013184 141.33936,30.078125 L 141.33154,30.822754 z "
   id="path25" />
			<path
   style="fill:#ffffff"
   d="M 142.72119,31.345215 C 142.85693,31.347656 143.13525,30.713867 143.271,30.71582 L 142.80029,30.476563 C 142.64209,30.475098 142.76807,31.233398 142.72119,31.345215 z "
   id="path27" />
			<path
   style="fill:#ffffff"
   d="M 144.13916,31.551758 L 144.01123,31.911133 C 144.32764,31.869629 144.4585,31.262695 144.64014,31.084473 C 144.10693,31.009277 144.07959,30.868164 144.13916,31.551758 z "
   id="path29" />
			<path
   style="fill:#ffffff"
   d="M 145.68701,32.28418 L 146.20557,31.303223 L 145.67041,31.212402 L 145.68701,32.28418 z "
   id="path31" />
			<path
   style="fill:#ffffff"
   d="M 147.13037,32.043945 L 147.75635,31.524414 C 147.0874,31.307617 147.04541,31.21582 147.13037,32.043945 z "
   id="path33" />
			<path
   style="fill:#ffffff"
   d="M 148.68115,31.57666 C 148.7915,31.848633 148.72021,32.186035 148.71631,32.479004 C 148.85498,32.1875 149.19678,31.966309 149.22217,31.62793 C 149.06592,31.513184 148.86182,31.579102 148.68115,31.57666 L 148.68115,31.57666 z "
   id="path35" />
			<path
   d="M 129.67041,43.213867 C 129.89795,43.584473 129.93213,44.04834 130.15967,44.418945 C 130.59717,43.359375 130.47607,42.120117 129.78857,41.223633 C 128.65381,40.804688 127.55615,40.365723 126.56006,39.658691 C 127.02686,40.959473 128.40381,42.348633 129.67041,43.213867 L 129.67041,43.213867 z "
   id="path37" />
			<path
   d="M 128.44482,54.069336 L 128.37646,51.020508 C 126.89209,50.18457 125.32373,49.510742 123.94678,48.370117 C 125.08936,50.40918 126.57959,52.452148 128.44482,54.069336 L 128.44482,54.069336 z "
   id="path39" />
			<path
   style="fill:#fb0f0c"
   d="M 128.9292,51.493652 C 129.10107,52.601563 129.21045,53.748535 129.73193,54.696777 C 131.16162,54.856445 134.51807,53.709473 135.75537,54.518555 L 135.94775,54.520508 C 136.51709,55.47168 136.69678,56.635254 136.94287,57.668945 C 137.23584,56.512695 136.73682,55.00293 138.01318,54.286133 L 137.82764,53.553711 L 131.74854,53.696777 C 130.36182,53.270508 130.87256,49.818848 128.9292,51.493652 L 128.9292,51.493652 z "
   id="path41" />
			<path
   d="M 106.58154,57.088867 C 106.11963,58.066406 105.84131,59.106445 105.46045,60.125 L 105.60498,60.126465 C 107.10107,58.179688 109.06201,56.646973 110.82178,54.887695 L 112.57568,51.85791 C 110.53076,53.492187 108.54541,55.290527 106.58154,57.088867 L 106.58154,57.088867 z "
   id="path43" />
			<path
   d="M 120.56787,52.626465 C 119.62646,54.436035 118.19482,56.036133 117.70166,58.056152 C 114.98975,60.76709 111.60107,61.8125 108.17334,62.755371 C 108.13232,62.713867 108.11279,62.631348 108.03076,62.651367 L 107.92822,62.75293 L 108.13232,62.754883 L 108.13135,62.85791 C 111.13525,63.260742 114.33057,62.929687 116.646,60.990723 C 117.48975,60.46875 118.19482,59.57666 119.35889,59.896973 L 119.70654,59.839844 C 119.30713,57.317871 119.78467,54.806152 120.66943,52.62793 L 120.56787,52.626465 L 120.56787,52.626465 z "
   id="path45" />
			<path
   style="fill:#fb0f0c"
   d="M 137.67432,61.32959 L 137.50537,62.939941 C 138.11572,62.150879 138.83447,61.385742 138.63135,60.30957 C 138.39209,60.649902 138.17041,61.18457 137.67432,61.32959 L 137.67432,61.32959 z "
   id="path47" />
			<path
   style="fill:#fb0f0c"
   d="M 101.35107,66.954102 C 100.23779,67.697754 100.22412,68.987305 99.944824,70.129883 C 99.784668,75.05957 100.8999,79.614746 104.39795,83.133789 C 108.35889,85.737305 113.01416,86.650879 117.92041,87.03418 L 122.19482,87.26709 L 122.33545,87.412598 C 121.46826,88.057617 120.48389,88.373535 119.51709,88.771973 C 121.04541,89.301758 122.59521,89.790039 124.16553,90.238281 C 123.07275,90.920899 121.75928,91.293946 120.36572,91.381348 C 120.38037,95.493652 123.4165,98.393555 124.7251,101.99072 C 125.06201,103.01709 125.00635,104.20313 125.17822,105.29004 C 126.26514,106.87793 127.10498,108.56494 127.90381,110.27344 C 128.12061,111.05322 127.37061,112.0874 128.36963,112.48828 C 128.24463,112.73145 128.19873,113.01855 128.07373,113.2627 C 129.10107,112.88574 129.68311,113.81348 130.16748,114.51465 L 131.18506,116.73584 L 130.95654,118.90234 L 131.53076,120.5249 C 132.18701,120.45068 132.88428,120.23438 133.54248,120.0166 C 136.21631,120.64063 138.90869,121.34668 141.83545,121.2373 C 142.06494,120.81104 142.29541,120.38281 142.68896,120.02051 C 141.75342,119.55957 140.54443,119.56543 139.50537,119.2876 C 138.59131,118.7251 137.76025,118.01855 136.90869,117.29395 C 137.42041,117.27832 138.13623,117.38916 138.62842,117.23145 C 138.20459,116.79688 137.36279,116.92969 137.12646,116.17041 L 135.2876,117.68359 C 134.26514,117.67187 133.29834,118.07031 132.29834,117.79297 C 133.63916,116.90771 134.92041,115.79785 136.06006,114.5415 C 134.34131,114.62354 133.31201,116.76074 131.37256,116.49219 L 131.33154,116.45166 C 132.61475,115.25928 133.69385,113.87988 134.81397,112.5625 C 134.0542,110.99854 133.15088,109.49365 133.00928,107.67188 C 133.4751,104.50488 132.54639,101.6499 132.2124,98.678711 C 131.54443,94.395508 130.03467,90.448242 129.3667,86.18457 L 129.34619,84.464844 L 128.271,83.654785 C 128.146,83.939941 128.10107,84.246094 127.91357,84.489258 C 126.396,81.21875 123.71436,77.831055 120.50635,75.708008 C 121.04248,77.104492 122.05029,78.385254 123.20459,79.421875 C 118.81787,78.245117 116.32568,72.712402 112.15186,70.864258 C 109.99561,69.713867 107.71436,68.787598 105.26416,68.329102 C 105.96338,68.049805 106.78369,67.875 107.5835,67.761719 C 106.30225,67.03125 104.729,66.829102 103.06982,66.912598 L 102.97021,66.829102 C 104.20264,66.290527 105.53467,66.061035 107.00928,66.13916 C 105.88623,65.859375 104.82764,65.376465 103.57666,65.546875 L 101.35107,66.954102 L 101.35107,66.954102 z "
   id="path49" />
			<path
   style="fill:#fb0f0c"
   d="M 92.247559,86.431152 C 89.741699,88.919434 87.249512,92.125 83.964356,93.109375 C 80.856445,94.67041 77.511231,95.551758 73.964844,96.00293 C 62.175293,96.296875 50.585449,95.262695 39.557129,93.334473 C 34.96582,92.238281 30.542481,90.754883 26.266602,88.925781 C 29.634766,91.338379 33.262696,94.367188 37.318848,95.764648 C 44.203125,98.585938 51.171387,101.18262 58.603516,102.64063 L 68.851563,104.72266 C 73.472168,105.0625 78.222168,104.87207 82.609375,104.14355 C 89.640137,102.99707 96.175293,100.6377 102.23193,97.06543 C 105.06201,94.806152 108.56787,94.273438 111.71436,92.79541 L 113.44385,91.936035 C 112.75635,91.191406 111.73779,90.790527 110.86279,90.32959 C 106.75244,88.399902 101.45068,88.626465 98.698731,84.112305 L 98.802246,84.010742 C 99.979981,84.740723 101.28467,85.206055 102.61084,85.568848 C 99.104981,82.500977 97.843262,78.333008 97.794434,73.789063 C 96.229981,78.129883 95.397949,82.78418 92.245606,86.431152 L 92.247559,86.431152 L 92.247559,86.431152 z "
   id="path51" />
			<path
   d="M 102.0835,76.231934 C 102.99365,78.963867 104.6499,82.604492 107.93701,83.318848 L 109.95459,83.99707 C 108.96045,83.125 107.604,81.943848 106.83936,80.768555 C 104.86475,80.049805 103.29443,77.801758 102.0835,76.23291 L 102.0835,76.231934 L 102.0835,76.231934 z "
   id="path53" />
			<path
   d="M 114.21338,83.739258 C 114.98682,84.094727 115.88525,84.311035 116.82568,84.362305 C 118.25635,84.481445 119.75146,84.436524 121.14404,84.268555 C 122.05811,84.811035 122.86865,85.618652 123.76123,86.20166 C 124.98193,86.911133 126.19873,87.764649 127.73584,87.536133 C 126.1792,85.984375 124.58154,84.307617 122.77295,83.243652 C 119.854,82.635742 117.15967,83.792969 114.21338,83.739258 L 114.21338,83.739258 z "
   id="path55" />
			<path
   d="M 96.568848,96.092773 C 93.624512,99.49707 92.088379,98.381348 88.346191,99.95459 C 83.354981,101.63574 77.924316,102.26953 72.455078,102.75928 C 67.09375,102.82031 61.966797,101.9834 56.901855,101.14697 C 60.589355,102.52051 64.548828,103.44531 68.65625,103.94385 C 72.724609,104.27637 77.222168,104.6748 81,103.55322 C 88.239746,102.10156 95.300293,100.17822 101.30615,95.68457 C 102.87256,94.862305 103.48779,93.823242 105.72607,93.435059 L 107.30811,90.592285 C 104.62451,93.40918 98.966309,95.854492 96.569824,96.092774 L 96.568848,96.092774 L 96.568848,96.092773 z "
   id="path57" />
			<path
   d="M 86.725098,95.478027 C 87.274902,95.750976 88.052246,95.739258 88.620606,96.073242 C 87.001465,96.443848 85.261231,96.504883 83.560547,96.710937 C 83.884277,97.000976 84.437012,96.946289 84.843262,97.176758 C 84.062012,97.57666 83.039063,97.544433 82.13623,97.717773 C 80.456543,97.882812 78.757812,97.943847 77.118164,98.151367 C 77.851562,98.364258 78.650391,98.414062 79.425781,98.524902 L 78.195312,98.756348 L 67.325195,99.225098 L 64.029785,99.227539 L 64.192383,99.393555 C 73.692383,100.68896 84.144043,101.03516 91.779785,95.537598 L 94.358887,93.643066 C 91.755371,94.104004 89.210449,94.709473 86.726074,95.478027 L 86.725098,95.478027 L 86.725098,95.478027 z "
   id="path59" />
			<path
   d="M 126.10693,104.74756 C 127.02686,106.43604 127.88818,108.16553 129.05713,109.69238 C 129.15869,107.95459 129.48584,106.23975 129.78857,104.64697 C 129.31592,104.92822 128.88232,105.27051 128.44873,105.65479 C 127.54639,103.98682 127.01709,102.07812 125.97119,100.42822 L 125.57568,99.196289 C 125.67822,100.97754 125.86084,102.92334 126.10693,104.74707 L 126.10693,104.74756 L 126.10693,104.74756 z "
   id="path61" />
			<path
   style="fill:#fb0f0c"
   d="M 91.395996,105.28906 C 91.286621,105.7998 90.728027,106.26318 91.069824,106.86182 C 90.67334,107.4502 90.440918,108.18457 90.126465,108.85645 L 88.665527,111.4375 C 88.158691,112.65918 90.938965,112.89551 89.330566,113.96191 L 89.872559,116.66943 L 88.739746,117.39209 C 89.225098,117.7876 89.921387,117.7749 90.346191,118.18896 C 90.353027,119.45801 90.214355,120.76563 90.796387,121.7749 C 92.39209,121.77344 93.847168,121.48291 95.384277,121.3374 C 98.552246,121.7002 102.40771,122.80957 105.2915,121.10303 C 105.43701,120.94043 105.70459,120.80176 105.74756,120.57666 L 104.71045,119.97021 C 103.39795,120.28271 101.94385,120.34863 100.59229,120.41406 L 101.44092,119.58594 C 100.17529,119.36621 99.056152,118.8623 97.873535,118.48047 C 97.29541,118.88281 96.737793,119.32666 96.140137,119.6875 L 96.038574,119.5835 L 96.546387,118.26025 C 95.474121,118.94385 94.037598,119.23438 92.645996,119.34082 L 92.544434,119.2373 L 94.775879,117.36035 C 93.608887,117.32666 92.425293,117.06543 91.408691,116.58447 C 91.943848,116.28272 92.720215,116.375 93.315918,116.15527 L 95.351074,115.40137 L 95.511231,113.92969 C 94.669434,114.22754 93.882324,114.95459 92.904785,114.5752 C 93.712402,113.74512 94.946777,113.1665 95.431152,112.06738 C 95.908692,109.6377 95.939942,107.41699 96.804199,105.15625 L 100.18604,101.93262 C 96.976074,103.38916 94.724121,104.18115 91.395996,105.28809 L 91.395996,105.28906 L 91.395996,105.28906 z "
   id="path63" />
			<path
   d="M 131.58057,107.26709 C 131.08936,109.12354 131.06201,111.5166 132.00342,113.16406 C 132.20459,113.57666 132.44482,113.96729 132.5835,114.39844 L 132.68604,114.3999 L 133.27686,112.79053 C 132.56104,111.00146 131.78369,109.2124 131.58057,107.26709 z "
   id="path65" />
			<path
   style="fill:#fb0f0c"
   d="M 142.47607,117.11182 L 144.13818,116.80322 C 143.60791,116.63379 142.91162,116.74854 142.47607,117.11182 z "
   id="path67" />
			<path
   style="fill:#fb0f0c"
   d="M 143.14014,118.20313 C 143.62451,118.80322 144.50732,118.54688 145.20264,118.47363 C 144.61279,118.17969 143.8374,118.00684 143.14014,118.20313 z "
   id="path69" />
			<path
   d="M 135.34717,20.92334 C 134.97998,20.850586 134.74756,20.46582 134.82568,20.0625 C 134.90576,19.657715 135.26709,19.389648 135.63428,19.462402 C 136.00146,19.53418 136.23389,19.92041 136.15576,20.323242 C 136.07568,20.726562 135.71338,20.995117 135.34717,20.92334 z "
   id="path71" />
			<path
   d="M 129.39697,50.838867 L 130.68213,48.276367 C 129.19873,47.442383 126.27686,46.28125 124.8999,45.13916 C 126.04248,47.178223 127.53271,49.22168 129.39697,50.838867 L 129.39697,50.838867 z "
   id="path73" />
			<path
   d="M 129.50732,46.834473 L 130.44482,44.966309 C 129.36279,44.35791 127.23389,43.511719 126.229,42.679688 C 127.06201,44.166992 128.1499,45.654785 129.50732,46.834473 z "
   id="path75" />
			<path
   d="M 128.8335,57.12793 C 129.10791,57.575195 130.21631,59.414063 130.75244,58.28125 C 131.28271,57 129.6499,55.349121 128.81982,54.263184 C 127.09619,53.626465 125.75732,52.970215 124.91162,52.370117 C 125.47803,53.943848 127.30029,56.080566 128.8335,57.12793 L 128.8335,57.12793 z "
   id="path77" />
			<path
   d="M 51.262695,223.66113 C 54.225098,221.52246 58.815918,217.17676 60.987793,214.67188 C 60.41748,214.62402 59.84082,215.08594 59.206543,215.20215 L 54.850098,216.61426 C 56.603516,214.98145 60.32373,212.07031 61.329102,209.87793 C 59.975098,210.43457 57.166504,212.21094 55.735352,212.4209 C 56.933106,211.22949 59.441406,208.95801 60.192383,207.55762 C 60.09082,207.5166 60.15332,207.39551 60.134766,207.3125 C 59.085449,207.97559 56.54248,209.69434 55.356445,209.8623 C 56.515137,208.50879 58.640137,205.90723 59.046875,204.21875 C 58.018067,204.98145 55.416016,206.55762 54.266602,207.05469 C 54.498535,206.38379 55.065918,205.86621 55.416016,205.18848 C 55.899414,204.25293 57.101563,203.15332 57.093262,202.07129 C 56.205078,203 55.087891,203.83691 53.958008,204.5166 C 54.418946,203.39941 55.325196,202.44629 55.517578,201.13574 C 54.792969,201.92285 53.369141,202.3877 52.404785,202.78613 L 52.517578,202.66406 C 52.598633,202.58887 53.664063,201.7373 54.369141,200.8125 C 53.702637,200.89063 54.205567,200.94531 53.338379,200.7998 L 52.873047,200.80371 C 54.17041,200.02344 56.164063,198.79688 57.381348,197.91113 C 56.644043,198.02441 55.659668,198.11621 54.822266,198.0459 C 56.467285,197.24512 58.214844,196.60938 59.660157,195.44043 C 58.800782,195.42969 57.798828,195.47949 57.003418,195.16406 C 58.606446,194.62988 60.1875,194.03418 61.511231,192.90332 C 60.445313,193.03418 59.051758,193.24316 57.972168,192.8623 C 59.612793,192.45312 61.115723,191.71191 62.458008,190.60254 C 61.495606,190.69434 60.143067,190.84082 59.123047,190.625 C 59,190.58301 58.671875,190.70215 58.529785,190.5166 C 60.359375,189.84277 62.227539,189.31152 63.818359,188.01855 C 63.12207,188.11426 62.161133,188.04004 61.321289,188.05176 L 61.220703,187.94824 C 63.192383,187.31543 65.183105,186.80762 66.995605,185.74316 C 66.200195,185.53027 65.299316,185.58105 64.54541,185.28613 C 66.128418,184.6709 67.710449,184.09375 69.033691,182.88184 C 68.009766,182.99219 66.842285,183.10254 65.736328,183.19238 L 65.654785,183.08691 C 67.258789,182.43066 68.744141,181.4248 70.047852,180.13184 C 69.106445,180.14062 68.120605,180.49902 67.098633,180.34277 C 68.723633,179.625 70.369629,178.8252 71.755859,177.55176 C 70.689453,177.66309 69.583008,177.91504 68.416016,177.86035 L 68.41748,177.75879 C 70.620605,176.61816 72.921875,175.74316 74.826172,173.8623 C 73.782226,173.95312 72.511719,174.02246 71.345703,174.10937 L 71.24414,174.00684 C 72.894043,172.83887 74.686035,171.83594 76.055664,170.19434 L 72.40625,170.82715 L 72.407226,170.74512 C 73.912597,169.74121 75.638672,169.10449 76.861816,167.68652 C 75.754883,167.87793 74.486328,167.90527 73.277343,167.99316 L 73.279297,167.89062 C 75.234375,166.88965 77.151855,165.62402 78.687011,163.79785 C 77.662597,163.9502 76.674316,164.47168 75.627441,164.72559 C 75.15625,164.80176 74.642578,164.95996 74.192382,164.9541 C 75.617187,163.80469 77.270507,162.43262 78.230468,160.84668 C 78.191406,160.68262 78.294921,160.58105 78.336914,160.43848 C 77.330078,160.83594 76.200195,161.21191 75.131347,161.58887 C 76.331543,160.51855 77.90039,159.30762 78.85791,157.84668 C 78.140625,157.94043 77.503418,158.21875 76.786132,158.3125 C 76.769043,158.00684 77.115234,158.21387 77.280761,158.03223 C 78.601074,157.12598 79.97998,156.38574 81.179687,155.2334 C 80.400879,155.36719 79.41748,155.52051 78.537597,155.44824 C 80.101562,154.77051 81.74414,154.29785 83.32666,153.62012 C 82.592285,153.40723 81.692383,153.41895 80.91748,153.2041 C 82.331543,153.03613 83.724121,152.86816 85.060058,152.47559 C 84.245605,151.99316 83.18164,152.06348 82.45166,151.50293 L 84.870605,151.1416 C 84.608886,150.72949 84.224121,150.35645 83.901855,149.94434 C 84.780761,149.9541 85.821777,150.19043 86.640136,150.17969 C 86.421386,149.76855 85.935058,149.39551 85.733886,148.94238 C 86.716308,148.91309 87.694824,149.22949 88.718261,149.2627 L 88.135254,148.27344 C 88.89209,148.28223 89.688965,148.49707 90.507324,148.50684 L 90.10791,147.55957 C 95.052246,146.57324 100.31396,146.24512 105.54932,146.57129 L 117.42822,147.38379 C 127.75146,148.28027 137.42334,150.76562 146.10498,155.49121 C 148.07178,157.14941 150.79639,158.55371 151.74951,161.10059 C 150.85791,156.85449 147.64307,153.50293 144.50928,150.21191 C 137.76709,143.9541 129.59521,141.07812 121.31592,138.50684 C 118.01709,137.11816 114.44678,136.2998 110.93603,135.44043 L 99.669433,132.93652 C 94.015136,131.72656 88.032715,132.39355 82.477539,133.22949 L 79.460937,133.93066 C 79.727539,132.11426 81.115722,130.63574 81.729004,128.90332 L 80.759765,124.22656 L 82.60498,122.18066 L 82.66748,120.27979 C 82.222656,119.7627 82.089355,119.02441 81.663574,118.58887 C 81.186035,119.21875 81.231445,120.60937 80.10791,120.43262 L 80.027343,120.28906 C 79.97998,119.16406 80.177734,117.93848 79.90332,116.91162 L 78.74707,115.99854 L 72.210449,116.7627 L 67.167968,115.72168 C 65.21875,116.19043 62.66748,115.64844 61.63916,117.82666 C 61.248535,118.04834 60.822265,117.81738 60.412109,117.8125 C 59.964355,117.62354 59.558105,117.35254 59.088378,117.24512 L 59.085449,117.49072 L 60.327636,119.81738 C 61.084472,119.8252 60.829101,120.66113 61.007812,121.11426 C 61.600097,121.20313 62.043945,121.82178 62.722168,121.5625 L 64.179199,122.95215 C 65.490234,122.82324 66.766601,122.14209 68.112793,122.56543 C 68.578125,122.94043 69.726562,122.74902 69.51123,123.70801 L 70.241699,124.24902 C 70.254883,124.82129 70.30957,125.45801 70.92041,125.68848 L 71.062011,125.83496 C 70.871093,128.14355 69.887695,130.09668 69.228515,132.19629 C 67.567383,136.0459 64.318847,139.2002 61.783203,142.6709 C 57.759765,143.70801 54.01416,145.50684 50.489258,147.79785 C 49.921875,143.74121 47.504883,140.43848 45.704101,136.89844 C 45.529785,136.05762 45.643066,135.05566 45.632324,134.2373 C 44.733886,132.2627 43.609375,130.3877 42.506347,128.5127 C 42.418945,127.24316 42.839355,126.22559 43.321289,125.22754 L 42.908203,123.85156 L 40.754883,122.35449 C 40.708008,123.00781 41.005859,123.72754 41.037597,124.46582 C 40.646972,124.66504 40.257812,124.66113 40.141601,124.14746 C 39.96875,123.16406 38.609375,122.16553 39.68457,121.15478 C 39.741699,119.78516 39.489257,118.53369 39.402343,117.22266 L 38.753418,116.76465 C 37.07373,116.9502 35.453125,117.2998 33.79248,117.54687 C 31.319824,117.19043 28.830078,116.75293 26.29248,116.68262 L 24.318848,117.5 L 23.667481,118.90381 L 22.48291,118.74707 C 22.036133,118.43457 21.632324,118 21.164063,117.75 C 21.421875,118.48926 21.101074,119.71338 22.181641,120.07275 L 22.362793,120.25928 C 21.353516,120.88281 20.710937,119.79053 19.91748,119.45313 C 19.95166,120.00635 20.10791,120.62207 20.244629,121.17676 L 21.320312,121.96582 C 21.262695,123.47949 23.041504,123.5 23.745605,124.65527 C 24.678223,125.36035 25.586914,124.6748 26.450195,124.29688 C 27.431641,124.34863 28.498047,124.17676 29.291016,124.67676 C 29.26416,125.22949 29.421875,125.64063 29.909668,125.95313 L 29.963379,126.69043 C 31.779297,128.89941 33.225098,131.29004 33.108887,134.29688 C 33.206543,138.26855 33.59082,142.14063 34.490234,145.79395 C 35.115723,148.31738 35.659668,150.88184 36.367187,153.38574 C 36.231445,154.46875 36.012695,155.69434 36.287598,156.76074 C 37.501953,157.92187 38.884766,158.6748 40.183105,159.61035 C 38.945312,162.27637 37.768066,164.96387 36.936035,167.81934 L 35.836914,170.99902 C 36.301758,175.05469 36.619141,179.39844 36.121094,183.58691 C 35.875,183.68652 33.9375,184.38965 33.637695,184.40625 C 33.10791,183.6709 32.731445,182.80566 33.000977,181.82031 C 33.387695,181.8252 33.791504,182.17285 34.220703,182.28613 C 33.946289,181.72559 33.523438,181.2041 33.617188,180.47363 C 33.917481,180.54199 34.084473,180.99512 34.339844,181.14941 L 34.144043,179.55566 C 33.568848,179.09863 32.774414,179.11035 32,179.12402 L 32.208008,177.87988 C 32.637695,177.96973 33.041016,178.31934 33.446289,178.625 C 33.580078,178.19629 33.240723,177.82813 33.13623,177.43848 L 33.650391,177.56934 C 33.529297,176.94434 33.043945,176.1709 32.706543,175.62988 L 31.46582,175.1416 L 28.981445,176.36035 C 28.301758,177.57715 28.155762,179.01465 27.859375,180.40723 C 28.300781,181.31543 29.065918,182.07715 29.679687,182.89941 L 29.447266,184.40137 L 28.098633,185.8252 C 28.561035,186.7334 28.21875,188.44824 29.831543,188.27344 L 35.723633,187.94043 C 35.942383,188.41406 35.690918,189.06543 35.909668,189.5166 C 36.48291,191.22363 36.584473,193.12793 37.322266,194.79395 C 36.189453,197.23535 37.101563,201.25098 33.9375,203.07129 C 31.808594,204.32129 31.595703,204.9541 29.043945,204.62402 C 27.666016,204.44531 24.626953,203.59473 23.214356,203.9873 C 21.918945,204.80957 21.287598,205.1748 20.154785,206.14063 C 20.020508,206.67188 18.911133,206.82031 18.810547,207.49316 C 19.382324,207.5 21.051758,207.85059 21.369629,208.60938 L 21.820313,208.67676 L 23.106445,207.84473 L 23.43457,208.90625 C 23.926758,208.62598 24.016602,208.57031 24.510254,208.20801 C 24.689453,208.67969 24.723633,209.05762 24.84082,209.57031 C 25.251953,209.30957 25.595703,209.66895 26.065918,209.44824 L 26.359375,209.96875 C 26.75,209.72754 27.504883,209.39551 27.928223,209.18652 C 28.128906,209.47559 27.940918,209.90137 28.05957,210.20996 C 28.53125,210.01074 28.922852,209.64746 29.394531,209.44824 C 29.51416,209.69531 29.822266,210.33691 29.859375,210.62402 C 30.106445,210.4834 30.555664,210.22656 30.925293,210.1084 C 31.106445,210.29395 30.027344,210.44043 30.146973,210.64746 L 31.100098,210.25488 L 31.292969,211.27832 L 32.536133,210.85059 C 32.603516,211.53027 32.38916,209.52246 32.519531,210.37988 C 32.275879,210.43066 32.150391,210.9502 31.70166,211.02832 L 31.075196,209.30762 C 30.917969,209.30566 30.039063,210.66699 30.138672,210.22168 L 29.943848,209.68457 C 29.914063,209.60938 29.738282,209.37598 29.56836,208.37793 C 28.762696,208.9209 28.981446,208.8291 28.189453,209.42969 C 27.992188,208.60156 28.050293,208.63965 28.075196,208.18457 L 27.901856,208.21777 C 27.291504,208.75 26.830078,208.68652 26.169922,209.24121 C 26.083985,208.87988 26.240723,208.25684 26.086914,207.93848 L 24.838379,208.57812 C 24.686035,208.08105 24.787598,207.80469 24.683594,207.31934 L 23.372071,208.6084 C 22.994141,208.12988 23.236817,207.39941 23.093262,206.77344 C 22.57666,207.20312 22.048828,207.96094 21.590821,208.49707 C 21.462891,207.86426 21.854004,207.19043 21.611817,206.60156 C 21.159668,206.75488 20.601074,206.96973 20.169922,207.19043 C 19.994141,206.78223 21.132813,206.56934 20.979981,206.16113 C 18.969727,205.85059 18.459473,205.9375 17.916016,206.83301 C 18.34375,206.15625 17.158203,209.4248 16.646973,210.65918 L 16.640625,211.31348 C 17.284668,212.91895 17.29541,215.72168 17.598633,216.10937 C 19.567383,218.49902 26.231446,218.54004 29.409668,221.65332 C 28.98291,223.30371 30.128418,224.58496 31.276856,225.54199 C 32.98291,226.63574 35.225098,225.97559 36.95166,225.39355 C 38.967285,225.69531 40.851075,226.29785 42.822266,226.75 C 47.166016,226.96387 51.261719,223.66113 51.261719,223.66113 L 51.262696,223.66113 L 51.262695,223.66113 z "
   id="path79" />
			<path
   style="fill:#fb0f0c"
   d="M 38.526856,222.94043 L 39.930664,222.33301 C 40.119629,222.65723 39.708008,222.99707 39.554199,223.31738 C 39.44336,223.55176 39.098633,223.69824 39.029785,223.97754 C 40.896973,224.17188 42.693848,224.96582 44.65332,224.55762 C 46.748047,224.12207 47.936035,223.27246 49.103516,222.26855 C 49.699219,221.90723 49.972168,221.42871 50.548828,221.00488 C 51.244141,220.32715 51.493164,219.03418 51.662109,218.78125 C 50.628418,219.28223 49.561035,219.27246 48.854981,219.5459 C 51.469727,217.75781 51.771973,214.5166 50.884766,211.87402 L 50.925293,211.8125 C 51.859375,212.29395 52.175293,213.25684 52.470703,214.09668 C 52.620606,213.52637 52.60791,212.8125 52.697266,212.17969 C 53,212.42871 53.179688,212.79785 53.359375,213.12598 C 53.515625,210.27246 51.972656,208.03418 50.115723,205.88379 C 48.872071,204.44434 51.09375,203.3291 50.460449,201.47168 L 47.730469,201.76465 C 47.385254,201.91113 47.492188,201.85938 47.492188,201.85938 C 48.109375,200.48535 51.68457,199.28223 52.341797,198.48145 C 52.13916,198.33496 48.998535,199.45996 47.84082,199.71387 L 52.775391,196.38281 C 52.428223,196.29785 51.12207,196.41504 50.378418,196.56152 C 51.103516,195.87402 53.593262,194.91113 54.257324,194.12012 L 51.936035,194.53223 L 55.699219,191.42285 C 55.572754,189.90723 55.964844,189.40137 57.142578,188.43262 C 59.150391,186.5127 61.600098,185.25098 63.140625,182.91504 C 64.168945,180.71777 64.972656,178.41504 66.22461,176.32129 C 64.625,176.65137 63.142578,177.43066 61.345703,177.08496 C 56.348633,175.65527 52.512695,174.71094 49.793945,170.99512 C 48.558106,169.9375 47.793945,168.64062 46.452637,167.8877 L 42.012695,162.49512 L 41.833008,162.14551 C 40.51416,164.68848 41.882813,169.15625 41.908203,172.30762 C 41.870605,172.48926 40.67041,170.72656 40.568848,170.7666 C 39.938477,168.56152 39.51416,167.71387 39.80957,170.20605 L 40.973633,175.12402 L 39.123535,172.66113 C 38.78125,172.14551 38.552734,172.19824 38.129883,171.66113 C 37.303223,172.30566 38.178223,173.21582 38.209473,174.05469 C 38.564453,175.30762 39.298828,174.94434 40.13916,176.51465 L 42.757812,179.82324 L 38.883789,178.48535 C 39.158691,179.53223 38.857422,178.11719 39.335937,179.34863 L 42.845703,183.48145 L 38.304687,181.92188 C 38.353516,183.02637 38.354004,181.72949 38.690918,182.71582 C 39.095703,183.08887 40.12207,182.83496 40.112793,183.67285 L 40.536133,184.1709 C 40.95166,185.38184 41.490234,186.61621 41.537109,187.90625 L 41.067383,189.53809 C 40.517578,191.12598 39.296875,190.51855 38.350098,190.87598 C 38.700195,192.53809 39.396973,194.10156 39.378418,195.84082 C 38.749512,197.1416 37.833008,199.34082 38.054687,200.54688 L 37.376953,201.67676 C 38.346191,201.3877 39.317383,200.94629 40.036133,200.11816 C 40.289062,200.57129 39.960937,201.14844 39.804687,201.59668 C 39.343262,202.5166 38.348633,203.04199 37.568848,203.59277 L 39.301758,204.23438 C 40.231445,205.62012 41.916016,206.71387 42.046875,208.3916 L 41.640137,208.28027 C 40.003906,206.64941 37.735352,205.37598 35.53125,205.3916 C 37.034668,205.43848 29.330078,206.73438 29.819824,207.35156 C 28.93457,206.23926 26.418945,205.88281 24.567383,205.37012 C 23.74707,205.70801 23.377441,205.64356 22.779297,206.22754 C 23.061035,206.49707 23.487793,206.70606 23.894043,206.83301 C 26.317383,207.35156 32.021973,208.18848 33.35791,210.41699 C 33.536133,209.42871 32.566406,208.67188 31.487793,207.89356 L 33.73291,208.08301 C 37.748535,209.64844 37.433594,212.70996 36.724609,215.64063 L 36.300293,213.24707 L 35.462891,211.97363 C 34.13623,214.62988 34.884766,214.26856 38.002441,217.59375 L 35.745606,216.88379 C 34.692383,216.14356 32.958008,214.85938 31.43457,213.98438 C 27.333008,211.65723 25.279785,210.08106 20.226563,210 L 18.654785,209.74512 C 17.702637,212.61231 19.970703,215.09473 19.120606,211.20215 C 19.993164,212.13281 20.844727,212.99219 20.704102,213.50879 C 21.015137,213.91895 19.588379,215.05762 19.740723,215.53418 C 21.269531,216.89941 27.598633,217.34473 31.186035,220.46973 C 31.256348,219.91309 29.503418,218.57031 29.186035,218.09375 C 32.570313,217.88379 34.620606,218.79395 35.038574,219.84473 C 35.122071,220.02051 35.070313,220.81738 34.723633,221.09082 C 34.248047,221.36621 33.792481,221.76856 33.23291,221.84863 C 34.148438,222.50293 35.213379,221.50684 35.970703,221.04199 C 36.521973,219.99707 35.520508,218.91699 35.35791,218.09863 C 36.194824,218.25879 37.384766,219.61816 37.567383,220.50098 C 38.815918,220.30176 39.975098,220.39941 40.976563,221.05566 C 40.136231,221.28223 39.271973,221.63965 38.38916,221.84277 C 36.083008,222.46094 33.75586,224.92676 31.304688,223.22363 L 32.471192,224.52441 C 34.683106,224.63574 36.542481,223.54004 38.526856,222.94043 L 38.526856,222.94043 z "
   id="path81" />
			<path
   d="M 46.166016,221.50879 C 46.754883,220.76465 47.34375,220.01855 47.440918,219.05371 L 47.29248,218.89941 C 46.900391,219.41309 46.292969,219.85645 45.730469,220.17188 C 45.678223,219.16309 44.958008,218.20801 44.040039,217.7666 L 43.88916,217.76563 C 44.134766,218.82129 44.07666,220.13184 43.700195,221.11621 C 43.048828,221.70996 42.165039,221.97754 41.620605,222.59473 C 43.078125,222.84863 44.436035,222.49902 45.645508,221.97656 L 46.166016,221.50879 L 46.166016,221.50879 z "
   id="path83" />
			<path
   style="fill:#ffffff"
   d="M 31.534668,219.2998 C 32.167969,220.06738 33.043945,220.66406 34.109375,220.5166 C 34.04541,219.53125 32.637695,219.03027 31.534668,219.2998 z "
   id="path85" />
			<path
   d="M 40.080078,218.72559 C 41.004883,218.6084 41.866699,218.40137 42.72998,218.13281 C 42.325195,217.80566 41.831543,217.71387 41.44873,217.40918 C 42.571289,216.92871 43.756348,216.59863 44.712891,215.68457 L 44.498535,215.5752 C 42.66748,216.04688 40.475098,216.12988 38.522949,215.82813 L 38.414063,215.91309 L 39.638672,217.83887 L 37.936035,218.29199 C 38.894043,219.07715 39.980469,219.84082 41.20166,220.13379 C 40.992188,219.65918 40.460938,219.20215 40.080078,218.72559 L 40.080078,218.72559 z "
   id="path87" />
			<path
   d="M 33.250977,217.08691 C 32.328125,216.96973 31.318359,217.00098 30.456543,217.20605 C 31.931641,217.84668 33.760254,217.60938 34.971191,218.80469 C 34.720703,218.15723 34.195313,217.12012 33.250977,217.08691 z "
   id="path89" />
			<path
   d="M 46.65332,211.32324 C 46.236328,210.22363 47.370605,208.79688 46.350098,207.81934 C 45.47998,206.92871 44.43457,206.20605 43.432129,205.57129 L 43.536133,205.91699 C 44.44873,206.85156 45.296875,207.8916 45.754883,209.03613 C 44.728516,208.74512 43.636719,208.32324 42.478516,208.22559 C 43.874512,210.04687 46.347168,211.72949 45.586914,214.3623 C 45.560547,214.79199 44.998535,215.15137 45.166016,215.53906 C 46.467285,214.45996 46.956543,212.93848 46.65332,211.32324 L 46.65332,211.32324 z "
   id="path91" />
			<path
   style="fill:#ffffff"
   d="M 28.791016,210.79395 C 28.905762,210.56934 28.842285,210.25293 28.867188,209.9834 C 28.595703,210.1377 28.411133,210.45215 28.137695,210.58496 C 28.226563,210.74219 28.587891,210.72363 28.791016,210.79395 z "
   id="path93" />
			<path
   style="fill:#ffffff"
   d="M 27.05957,209.20996 L 26.511719,209.78906 C 26.645508,209.88184 26.82373,210.01855 27.050781,209.95313 L 27.05957,209.20996 z "
   id="path95" />
			<path
   style="fill:#ffffff"
   d="M 25.669922,208.68652 C 25.534668,208.68262 25.256348,209.31738 25.120606,209.31543 L 25.59082,209.55469 C 25.748535,209.55566 25.623047,208.79688 25.669922,208.68652 L 25.669922,208.68652 z "
   id="path97" />
			<path
   style="fill:#ffffff"
   d="M 24.251953,208.47949 L 24.379883,208.12012 C 24.064453,208.16113 23.933106,208.76855 23.75,208.94629 C 24.284668,209.02246 24.312012,209.16309 24.251953,208.47949 z "
   id="path99" />
			<path
   style="fill:#ffffff"
   d="M 22.705078,207.74707 L 22.186035,208.72754 L 22.720703,208.81934 L 22.705078,207.74707 L 22.705078,207.74707 z "
   id="path101" />
			<path
   style="fill:#ffffff"
   d="M 21.260254,207.9873 L 20.634766,208.50781 C 21.303223,208.72363 21.345703,208.81543 21.260254,207.9873 z "
   id="path103" />
			<path
   style="fill:#ffffff"
   d="M 19.709473,208.4541 C 19.599609,208.18262 19.671875,207.84473 19.674316,207.55176 C 19.536133,207.84375 19.194824,208.06543 19.168945,208.40332 C 19.325195,208.5166 19.529297,208.45215 19.709473,208.4541 L 19.709473,208.4541 z "
   id="path105" />
			<path
   d="M 38.720703,196.81738 C 38.492188,196.44629 38.459473,195.9834 38.231445,195.6123 C 37.793945,196.67187 37.916016,197.91113 38.601563,198.80762 C 39.737793,199.22656 40.834473,199.66504 41.831543,200.37207 C 41.363281,199.07129 39.987793,197.68262 38.720703,196.81738 L 38.720703,196.81738 z "
   id="path107" />
			<path
   d="M 39.947266,185.96191 L 40.01416,189.01074 C 41.498535,189.84668 43.066406,190.52051 44.443848,191.66113 C 43.301758,189.62207 41.811035,187.57813 39.947266,185.96191 L 39.947266,185.96191 z "
   id="path109" />
			<path
   style="fill:#fb0f0c"
   d="M 39.460938,188.53809 C 39.291016,187.42969 39.181641,186.28223 38.659668,185.33496 C 37.22998,185.1748 33.873535,186.32129 32.63623,185.5127 L 32.443359,185.51074 C 31.874512,184.55957 31.693848,183.39551 31.447754,182.3623 C 31.15625,183.51855 31.654785,185.02832 30.378418,185.74512 L 30.5625,186.47754 L 36.642578,186.33496 C 38.029785,186.76074 37.519043,190.21191 39.460938,188.53809 L 39.460938,188.53809 z "
   id="path111" />
			<path
   d="M 61.80957,182.94238 C 62.271484,181.96582 62.549316,180.9248 62.929688,179.90625 L 62.786133,179.90527 C 61.291016,181.85156 59.330078,183.38379 57.568848,185.14355 L 55.815918,188.17285 C 57.859375,186.53906 59.845703,184.74121 61.80957,182.94238 L 61.80957,182.94238 z "
   id="path113" />
			<path
   d="M 47.822754,187.40527 C 48.765625,185.59473 50.195313,183.99512 50.689453,181.97559 C 53.401855,179.26465 56.789063,178.21875 60.217285,177.27637 C 60.257812,177.31738 60.27832,177.39941 60.359375,177.37988 L 60.462891,177.27832 L 60.258789,177.27637 L 60.259766,177.17285 C 57.256348,176.77051 54.061035,177.10156 51.745605,179.04004 C 50.901855,179.5625 50.195312,180.4541 49.033203,180.13379 L 48.68457,180.19043 C 49.084473,182.71191 48.605469,185.22559 47.720703,187.40332 L 47.822754,187.40527 L 47.822754,187.40527 z "
   id="path115" />
			<path
   style="fill:#fb0f0c"
   d="M 30.716797,178.70215 L 30.886231,177.09277 C 30.275391,177.87988 29.556641,178.64551 29.759766,179.72168 C 29.999512,179.38184 30.220703,178.84668 30.716797,178.70215 L 30.716797,178.70215 z "
   id="path117" />
			<path
   style="fill:#fb0f0c"
   d="M 67.039063,173.07813 C 68.15332,172.33301 68.16748,171.04395 68.447266,169.90137 C 68.605469,164.97168 67.492188,160.41504 63.992187,156.89746 C 60.032227,154.29395 55.376953,153.37988 50.470703,152.99707 L 46.197266,152.76465 L 46.054687,152.61816 C 46.921875,151.97363 47.908203,151.65723 48.874512,151.25879 C 47.345703,150.72949 45.796387,150.24219 44.226074,149.79395 C 45.318848,149.11035 46.632324,148.7373 48.025391,148.64941 C 48.01123,144.53809 44.974609,141.6377 43.666016,138.04004 C 43.330078,137.01465 43.384766,135.82812 43.212891,134.74219 C 42.125976,133.15332 41.286133,131.46582 40.487793,129.75781 C 40.270508,128.97754 41.019531,127.94434 40.021484,127.54395 C 40.146973,127.2998 40.191406,127.0127 40.316406,126.76855 C 39.289062,127.14551 38.707031,126.21875 38.223633,125.5166 L 37.205078,123.2959 L 37.43457,121.12988 L 36.860352,119.50635 C 36.205078,119.58057 35.506348,119.79687 34.848633,120.01465 C 32.175293,119.39062 29.481445,118.68457 26.554687,118.79395 C 26.326172,119.22021 26.095703,119.64844 25.70166,120.01074 C 26.637695,120.47168 27.846191,120.46582 28.885254,120.74365 C 29.800293,121.30615 30.631348,122.0127 31.48291,122.7373 C 30.970703,122.75293 30.254883,122.6416 29.762695,122.7998 C 30.1875,123.23437 31.02832,123.10156 31.26416,123.86035 L 33.103516,122.34668 C 34.125977,122.35937 35.093262,121.96094 36.092285,122.2373 C 34.751953,123.12402 33.470703,124.23437 32.330566,125.49121 C 34.050293,125.40723 35.078125,123.27051 37.019043,123.53906 L 37.05957,123.5791 C 35.775879,124.77246 34.697266,126.15137 33.57666,127.46875 C 34.335937,129.03223 35.240234,130.53809 35.382812,132.35938 C 34.916016,135.52637 35.844727,138.38184 36.179199,141.35254 C 36.846191,145.63574 38.356445,149.58301 39.023437,153.84668 L 39.044922,155.56543 L 40.119629,156.37598 C 40.245605,156.09277 40.291016,155.78418 40.476562,155.54199 C 41.994629,158.8125 44.676758,162.2002 47.884766,164.32324 C 47.348633,162.92676 46.34082,161.64551 45.186035,160.60938 C 49.572754,161.78613 52.065918,167.31934 56.239258,169.16699 C 58.395508,170.31738 60.676758,171.24316 63.126953,171.70313 C 62.428223,171.98145 61.607422,172.15625 60.808105,172.26855 C 62.089355,173 63.662598,173.20215 65.320312,173.11816 L 65.421875,173.20215 C 64.1875,173.74121 62.855469,173.96973 61.382812,173.8916 C 62.504883,174.17188 63.563476,174.65527 64.814453,174.48438 L 67.039062,173.07813 L 67.039063,173.07813 z "
   id="path119" />
			<path
   style="fill:#fb0f0c"
   d="M 76.144043,153.60059 C 78.648438,151.11035 81.141602,147.90625 84.427246,146.92188 C 87.534668,145.36035 90.880371,144.47949 94.425293,144.02832 C 106.21631,143.73438 117.80615,144.76855 128.8335,146.69629 C 133.42529,147.79395 137.84912,149.27637 142.12451,151.10449 C 138.75635,148.69238 135.12842,145.66406 131.07178,144.26563 C 124.18701,141.44531 117.22021,138.84863 109.7876,137.39063 L 99.540527,135.30762 C 94.919434,134.96875 90.169434,135.15918 85.780762,135.8877 C 78.75,137.03418 72.21582,139.39355 66.158691,142.96582 C 63.329102,145.22559 59.823731,145.75781 56.675781,147.23535 L 54.947266,148.09473 C 55.634766,148.84082 56.65332,149.24121 57.527344,149.70215 C 61.63916,151.63184 66.940918,151.40527 69.692383,155.91895 L 69.589356,156.02051 C 68.411133,155.29004 67.106445,154.8252 65.779785,154.46191 C 69.285156,157.53027 70.546875,161.69824 70.597168,166.24219 C 72.161133,161.90137 72.992188,157.24707 76.144531,153.60059 L 76.144043,153.60059 z "
   id="path121" />
			<path
   d="M 66.307129,163.79785 C 65.396973,161.06738 63.740723,157.42676 60.455078,156.71191 L 58.436035,156.03418 C 59.429687,156.90625 60.787598,158.08691 61.551758,159.2627 C 63.526855,159.98145 65.097168,162.22949 66.307129,163.79785 L 66.307129,163.79785 z "
   id="path123" />
			<path
   d="M 54.177734,156.29199 C 53.404297,155.93652 52.506348,155.71973 51.565918,155.66895 C 50.134766,155.5498 48.640625,155.59473 47.24707,155.7627 C 46.332031,155.21973 45.521973,154.41309 44.628906,153.8291 C 43.409668,153.12012 42.191406,152.2666 40.654785,152.49512 C 42.212891,154.04687 43.80957,155.72363 45.618164,156.78809 C 48.537598,157.39551 51.230469,156.23926 54.177734,156.29199 L 54.177734,156.29199 z "
   id="path125" />
			<path
   d="M 71.822266,143.93848 C 74.766601,140.53418 76.303223,141.64941 80.044922,140.07715 C 85.036621,138.39551 90.466309,137.7627 95.936035,137.27246 C 101.29834,137.21094 106.42432,138.04785 111.48975,138.88379 C 107.80225,137.51074 103.84229,136.58594 99.73584,136.08691 C 95.666504,135.75488 91.169433,135.35645 87.39209,136.47754 C 80.151855,137.92969 73.089844,139.85254 67.084473,144.34668 C 65.519043,145.16895 64.90332,146.20801 62.665039,146.59473 L 61.082031,149.43848 C 63.765625,146.62207 69.424316,144.17676 71.822266,143.93848 L 71.822266,143.93848 z "
   id="path127" />
			<path
   d="M 81.666016,144.55371 C 81.115723,144.28027 80.338379,144.29199 79.769531,143.95801 C 81.390625,143.58691 83.129883,143.52637 84.830566,143.32031 C 84.507324,143.03125 83.95459,143.08594 83.546875,142.85449 C 84.32959,142.4541 85.351074,142.48535 86.255371,142.31348 C 87.935059,142.14844 89.634277,142.08691 91.272949,141.87988 C 90.538574,141.66699 89.740723,141.61719 88.964355,141.50684 L 90.194824,141.27441 L 101.06592,140.80566 L 104.36084,140.80469 L 104.19873,140.6377 C 94.69873,139.34277 84.247559,138.99512 76.611328,144.49316 L 74.032227,146.3877 C 76.63623,145.92676 79.180664,145.32129 81.666016,144.55371 L 81.666016,144.55371 z "
   id="path129" />
			<path
   d="M 42.284668,135.28418 C 41.363281,133.59473 40.503418,131.86621 39.333984,130.33887 C 39.232422,132.07715 38.905762,133.79199 38.601563,135.38379 C 39.075195,135.10254 39.509766,134.76074 39.942383,134.37598 C 40.84375,136.0459 41.374512,137.95313 42.419922,139.60254 L 42.814941,140.83496 C 42.712891,139.05371 42.529785,137.1084 42.284668,135.28418 L 42.284668,135.28418 z "
   id="path131" />
			<path
   style="fill:#fb0f0c"
   d="M 76.995605,134.74219 C 77.10498,134.23145 77.662598,133.76855 77.321289,133.1709 C 77.717285,132.58105 77.950195,131.84668 78.26416,131.1748 L 79.726563,128.59375 C 80.23291,127.37207 77.45166,127.13574 79.060547,126.07031 L 78.519043,123.36035 L 79.651856,122.63965 C 79.166016,122.24316 78.469727,122.25684 78.04541,121.84229 C 78.038574,120.57324 78.176758,119.26562 77.595703,118.25635 C 75.998535,118.25879 74.54248,118.54834 73.006348,118.69434 C 69.839356,118.33105 65.983887,117.22168 63.100098,118.92822 C 62.955078,119.08984 62.687012,119.23047 62.644043,119.45459 L 63.679688,120.06104 C 64.992188,119.74854 66.447266,119.68262 67.798828,119.61719 L 66.949219,120.44531 C 68.21582,120.66406 69.335449,121.16895 70.517578,121.5498 C 71.095703,121.14844 71.65332,120.70459 72.250976,120.34375 L 72.351562,120.44775 L 71.845703,121.77197 C 72.91748,121.0874 74.353515,120.79687 75.745605,120.69043 L 75.847168,120.79395 L 73.615234,122.67187 C 74.78125,122.7041 75.964844,122.96582 76.982422,123.44629 C 76.447265,123.74902 75.67041,123.65625 75.075195,123.875 L 73.040039,124.62988 L 72.879882,126.10156 C 73.722168,125.80371 74.507812,125.07715 75.486328,125.45605 C 74.678222,126.28613 73.443847,126.86426 72.960937,127.96387 C 72.482422,130.39355 72.45166,132.61426 71.585937,134.875 L 68.205078,138.09863 C 71.414062,136.6416 73.66748,135.85059 76.995605,134.74316 L 76.995605,134.74219 L 76.995605,134.74219 z "
   id="path133" />
			<path
   d="M 36.810547,132.76465 C 37.301758,130.90723 37.330078,128.51563 36.387695,126.86719 C 36.187012,126.4541 35.945313,126.06348 35.808105,125.63281 L 35.705078,125.63184 L 35.113281,127.24121 C 35.830078,129.03027 36.607422,130.81934 36.810547,132.76465 z "
   id="path135" />
			<path
   style="fill:#fb0f0c"
   d="M 25.914063,122.91895 L 24.253418,123.22754 C 24.783203,123.39844 25.479981,123.28223 25.914063,122.91895 z "
   id="path137" />
			<path
   style="fill:#fb0f0c"
   d="M 25.250977,121.82813 C 24.767578,121.22803 23.884766,121.48438 23.1875,121.55762 C 23.777344,121.85156 24.554199,122.0249 25.250977,121.82813 z "
   id="path139" />
			<path
   d="M 33.043945,219.1084 C 33.411133,219.18066 33.644043,219.56543 33.564941,219.96875 C 33.485352,220.37402 33.123535,220.64063 32.757324,220.56934 C 32.390137,220.49707 32.157226,220.11035 32.236328,219.70801 C 32.315918,219.30469 32.677734,219.03613 33.043945,219.1084 z "
   id="path141" />
			<path
   d="M 38.994141,189.19238 L 37.708984,191.75488 C 39.192383,192.58887 42.112793,193.75 43.490723,194.8916 C 42.348633,192.85254 40.85791,190.80957 38.994141,189.19238 L 38.994141,189.19238 z "
   id="path143" />
			<path
   d="M 38.882813,193.19629 L 37.947266,195.06348 C 39.02832,195.67285 41.157227,196.52051 42.162109,197.35156 C 41.328125,195.86426 40.242188,194.37598 38.882813,193.19629 z "
   id="path145" />
			<path
   d="M 39.558106,182.90332 C 39.283203,182.45605 38.175293,180.61719 37.638672,181.75 C 37.108887,183.03125 38.741699,184.68066 39.570313,185.7666 C 41.29541,186.40527 42.632813,187.06152 43.479981,187.66113 C 42.913574,186.08691 41.09082,183.95215 39.558106,182.90332 L 39.558106,182.90332 z "
   id="path147" />
		</g>
	</g>
</svg>