<?xml version="1.0" encoding="UTF-8"?>
<svg
   xmlns="http://www.w3.org/2000/svg"
   version="1.1"
   viewBox="0 0 1412 571">
   <g transform="matrix(1.25,0,0,-1.25,0,571.2375)">
    <g transform="scale(0.1,0.1)" fill-rule="nonzero" stroke="none" fill="#000">
      <path d="m 1555.26,2854.22 c 27.05,-41.76 38.98,-79.01 54.09,-157.6 105.79,103.26 236.24,157.6 378.62,157.6 128.59,0 234.12,-41.76 315.78,-126.99 22,-21.36 43.22,-48.92 61.52,-75.97 142.1,145.55 269.37,202.96 439.86,202.96 121.42,0 236.5,-36.31 306.77,-96.77 87.76,-75.84 115.59,-167.02 115.59,-379.3 l 0,-1104.43 -394.52,0 0,1025.3 c 0,185.86 -22,221.8 -127.8,221.8 -75.83,0 -182.41,-51.72 -269.91,-130.59 l 0,-1116.51 -384.99,0 0,1010.73 c 0,193.8 -28.09,239.3 -141.04,239.3 -75.04,0 -178.98,-38.87 -266.47,-118.14 l 0,-1131.89 -397.18,0 0,1083.38 c 0,224.31 -15.38,321.21 -58.06,397.42 l 367.74,99.7"/>
      <path d= "m 3948.95,2399.52 c -27.85,-82.2 -42.68,-191.31 -42.68,-346.15 0,-178.56 18.28,-312.74 51.42,-391.34 36.59,-84.99 128.08,-127.41 206.27,-127.41 176.07,0 251.37,157.62 251.37,524.7 0,209.49 -27.32,346.29 -81.66,416.27 -39,51.18 -102.35,81.66 -175.53,81.66 -97.3,0 -176.32,-60.43 -209.19,-157.73 z m 730.97,224.29 c 124.09,-145.56 179.51,-315.37 179.51,-567.14 0,-266.99 -61.24,-449.38 -195.15,-600.79 -117.71,-133.37 -272.82,-215.57 -511.98,-215.57 -422.36,0 -697.84,315.66 -697.84,803.91 0,488.68 278.39,813.46 697.84,813.46 221.39,0 394.27,-76.11 527.62,-233.87"/>
      <path d= "m 6167.08,2827.17 0,-279.16 -686.16,-992.04 712.95,0 -97.31,-282.25 -1143.26,0 0,251.75 730.46,1016.4 -669.5,0 0,285.3 1152.82,0"/>
      <path d= "m 6806.9,2863.77 0,-1590.05 -406.48,0 0,1526.16 406.48,63.89 z m 47.71,391.09 c 0,-139.76 -111.1,-251.36 -251.61,-251.36 -136.03,0 -247.9,111.6 -247.9,251.36 0,139.46 115.6,252.01 254.76,252.01 136.3,0 244.75,-112.55 244.75,-252.01"/>
      <path d= "m 7547.15,3115.1 0,-1210.35 c 0,-267.38 3.19,-303.32 27.59,-345.74 15.37,-27.56 48.24,-42.43 82.19,-42.43 14.58,0 23.32,0 45.33,5.59 l 69.47,-242.46 c -69.47,-27.18 -154.57,-42.33 -242.58,-42.33 -173.42,0 -312.88,81.7 -361.16,211.88 -30.48,79 -37.11,127.78 -37.11,349.17 l 0,1159.48 c 0,203.09 -5.28,327.18 -20.43,467.3 l 415.77,93.99 c 14.57,-84.86 20.93,-185.07 20.93,-404.1"/>
      <path d= "m 8390.28,3115.1 0,-1210.35 c 0,-267.38 3.47,-303.32 28.4,-345.74 14.3,-27.56 47.17,-42.43 81.13,-42.43 15.37,0 24.65,0 46.12,5.59 l 69.22,-242.46 c -69.22,-27.18 -154.34,-42.33 -242.63,-42.33 -173.11,0 -312.84,81.7 -361.36,211.88 -31.02,79 -36.07,127.78 -36.07,349.17 l 0,1159.48 c 0,203.09 -6.08,327.18 -21.74,467.3 l 415.2,93.99 c 16.72,-84.86 21.73,-185.07 21.73,-404.1"/>
      <path d= "m 9555.05,1953.27 c -281.05,0 -379.67,-51.17 -379.67,-237.03 0,-120.89 76.89,-202.82 180.01,-202.82 75.57,0 151.95,39.5 212.14,106.05 l 6.63,333.8 -19.11,0 z m -526.84,816.12 c 151.15,63.9 281.09,90.95 424.25,90.95 261.43,0 440.13,-96.8 501.36,-269.91 20.16,-63.66 29.44,-112.18 27.59,-279.19 l -9.83,-521.56 c 0,-9.15 0,-18.8 0,-27.55 0,-166.78 27.59,-230.68 146.42,-318.46 l -215.86,-249.22 c -94.95,39.77 -179.5,109.76 -219.03,188.39 -29.95,-30.63 -63.63,-60.33 -94.39,-81.8 -75.29,-54.64 -185.31,-85.12 -312.6,-85.12 -345.98,0 -533.96,176.33 -533.96,485.21 0,364.69 252.41,534.8 746.6,534.8 29.71,0 57.81,0 91.49,-3.46 l 0,63.36 c 0,173.27 -33.68,230.94 -183.21,230.94 -128.86,0 -281.85,-63.35 -448.37,-175.9 l -173.13,291.37 c 82.46,51.72 143.19,81.8 252.67,127.15"/>
    </g>
  </g>
</svg>