<?xml version="1.0" encoding="UTF-8"?>
<svg xmlns="http://www.w3.org/2000/svg"
     xmlns:xlink="http://www.w3.org/1999/xlink"
     viewBox="0 0 192 192">
  <defs>
    <path id="tooth" d="M0,0 L10,0 S 15,5 20,2 S 30,0 30,10 L0,10 M0,20 L10,20 S 15,15 20,18 S 30,20 30,10 L0,10 z"
          fill="#000" transform="scale(.5,.4) translate(-15,-10)"/>
    <use id="tooth2" x="0" y="0" xlink:href="#tooth" transform="scale(-1,1)"/>
  </defs>
  <rect x="4.5" y="4.5" width="183" height="183" rx="18" ry="18"
        fill="#fff" stroke="#000" stroke-width="9"/>
  <g fill="#000" fill-rule="evenodd" transform="translate(96,5)">
    <use transform="translate(3,10)" xlink:href="#tooth2"/>
    <use transform="translate(-3,18)" xlink:href="#tooth"/>
    <use transform="translate(3,26)" xlink:href="#tooth2"/>
    <use transform="translate(-3,34)" xlink:href="#tooth"/>
    <use transform="translate(3,42)" xlink:href="#tooth2"/>
    <use transform="translate(-3,50)" xlink:href="#tooth"/>
    <use transform="translate(3,58)" xlink:href="#tooth2"/>
    <use transform="translate(-3,66)" xlink:href="#tooth"/>
    <use transform="translate(3,74)" xlink:href="#tooth2"/>
    <path transform="translate(0,81)"
          d="M0,0 C 15,0 18,5 18,10 C 18,15 15,20 8,20 L 8,10 0,10
             M0,0 C -15,0 -18,5 -18,10 C -18,15 -15,20 -8,20 L -8,10 0,10"/>
    <rect x="-5" y="94" width="10" height="20"/>
    <path transform="translate(0,103)" fill-rule="evenodd"
          d="M12,0 C 12,30 30,50 0,50 C -30,50 -12,30 -12,0 L -8,0
             C -8,18 -8,20 0,20 8,20 8,18 8,0 z M0,30 C 10,30 10,30 10,40 10,45 -10,45 -10,40 -10,30 -10,30 0,30 z"/>
  </g>
</svg>
