<?xml version="1.0" encoding="UTF-8" standalone="no"?>
<svg
   xmlns:dc="http://purl.org/dc/elements/1.1/"
   xmlns:cc="http://creativecommons.org/ns#"
   xmlns:rdf="http://www.w3.org/1999/02/22-rdf-syntax-ns#"
   xmlns:svg="http://www.w3.org/2000/svg"
   xmlns="http://www.w3.org/2000/svg"
   xmlns:sodipodi="http://sodipodi.sourceforge.net/DTD/sodipodi-0.dtd"
   xmlns:inkscape="http://www.inkscape.org/namespaces/inkscape"
   version="1.1"
   id="Layer_1"
   x="0px"
   y="0px"
   width="44.040859"
   height="39.79398"
   viewBox="0 0 83.237224 75.210622"
   enable-background="new 0 0 189 178"
   xml:space="preserve"
   inkscape:version="0.48.4 r9939"
   sodipodi:docname="friends.svg"><metadata
   id="metadata35"><rdf:RDF><cc:Work
       rdf:about=""><dc:format>image/svg+xml</dc:format><dc:type
         rdf:resource="http://purl.org/dc/dcmitype/StillImage" /></cc:Work></rdf:RDF></metadata><defs
   id="defs33" /><sodipodi:namedview
   pagecolor="#ffffff"
   bordercolor="#666666"
   borderopacity="1"
   objecttolerance="10"
   gridtolerance="10"
   guidetolerance="10"
   inkscape:pageopacity="0"
   inkscape:pageshadow="2"
   inkscape:window-width="907"
   inkscape:window-height="480"
   id="namedview31"
   showgrid="false"
   inkscape:zoom="3.5437968"
   inkscape:cx="-13.903301"
   inkscape:cy="8.2416256"
   inkscape:window-x="0"
   inkscape:window-y="0"
   inkscape:window-maximized="0"
   inkscape:current-layer="g3"
   fit-margin-top="0"
   fit-margin-left="0"
   fit-margin-right="0"
   fit-margin-bottom="0" />
<g
   id="g3"
   transform="translate(-56.676135,-55.350359)">
	<circle
   cx="68.880997"
   cy="69.917"
   r="3.237"
   id="circle5"
   sodipodi:cx="68.880997"
   sodipodi:cy="69.917"
   sodipodi:rx="3.237"
   sodipodi:ry="3.237"
   style="fill:none"
   d="m 72.117997,69.917 c 0,1.787746 -1.449255,3.237 -3.237,3.237 -1.787746,0 -3.237,-1.449254 -3.237,-3.237 0,-1.787746 1.449254,-3.237 3.237,-3.237 1.787745,0 3.237,1.449254 3.237,3.237 z" />
	<circle
   cx="82.275002"
   cy="67.950996"
   r="3.237"
   id="circle7"
   sodipodi:cx="82.275002"
   sodipodi:cy="67.950996"
   sodipodi:rx="3.237"
   sodipodi:ry="3.237"
   style="fill:none"
   d="m 85.512002,67.950996 c 0,1.787746 -1.449255,3.237 -3.237,3.237 -1.787746,0 -3.237,-1.449254 -3.237,-3.237 0,-1.787745 1.449254,-3.237 3.237,-3.237 1.787745,0 3.237,1.449255 3.237,3.237 z" />
	<circle
   cx="114.024"
   cy="68.194"
   r="3.237"
   id="circle9"
   sodipodi:cx="114.024"
   sodipodi:cy="68.194"
   sodipodi:rx="3.237"
   sodipodi:ry="3.237"
   style="fill:none"
   d="m 117.261,68.194 c 0,1.787746 -1.44925,3.237 -3.237,3.237 -1.78774,0 -3.237,-1.449254 -3.237,-3.237 0,-1.787745 1.44926,-3.237 3.237,-3.237 1.78775,0 3.237,1.449255 3.237,3.237 z" />
	<path
   d="m 118.817,87.34 c 6.249,0.658 11.713,-2.583 12.203,-7.237 l -22.635,-2.38 c -0.489,4.654 4.181,8.961 10.432,9.617 z"
   id="path11"
   inkscape:connector-curvature="0"
   style="fill:none" />
	<circle
   cx="127.488"
   cy="69.610001"
   r="3.237"
   id="circle13"
   sodipodi:cx="127.488"
   sodipodi:cy="69.610001"
   sodipodi:rx="3.237"
   sodipodi:ry="3.237"
   style="fill:none"
   d="m 130.725,69.610001 c 0,1.787745 -1.44926,3.237 -3.237,3.237 -1.78775,0 -3.237,-1.449255 -3.237,-3.237 0,-1.787746 1.44925,-3.237 3.237,-3.237 1.78774,0 3.237,1.449254 3.237,3.237 z" />
	<circle
   cx="82.275002"
   cy="67.950996"
   r="3.237"
   id="circle15"
   sodipodi:cx="82.275002"
   sodipodi:cy="67.950996"
   sodipodi:rx="3.237"
   sodipodi:ry="3.237"
   style="fill:none"
   d="m 85.512002,67.950996 c 0,1.787746 -1.449255,3.237 -3.237,3.237 -1.787746,0 -3.237,-1.449254 -3.237,-3.237 0,-1.787745 1.449254,-3.237 3.237,-3.237 1.787745,0 3.237,1.449255 3.237,3.237 z" />
	<circle
   cx="68.880997"
   cy="69.917"
   r="3.237"
   id="circle17"
   sodipodi:cx="68.880997"
   sodipodi:cy="69.917"
   sodipodi:rx="3.237"
   sodipodi:ry="3.237"
   style="fill:none"
   d="m 72.117997,69.917 c 0,1.787746 -1.449255,3.237 -3.237,3.237 -1.787746,0 -3.237,-1.449254 -3.237,-3.237 0,-1.787746 1.449254,-3.237 3.237,-3.237 1.787745,0 3.237,1.449254 3.237,3.237 z" />
	<path
   d="m 118.817,87.34 c 6.249,0.658 11.713,-2.583 12.203,-7.237 l -22.635,-2.38 c -0.489,4.654 4.181,8.961 10.432,9.617 z"
   id="path19"
   inkscape:connector-curvature="0"
   style="fill:none" />
	<circle
   cx="127.488"
   cy="69.610001"
   r="3.237"
   id="circle21"
   sodipodi:cx="127.488"
   sodipodi:cy="69.610001"
   sodipodi:rx="3.237"
   sodipodi:ry="3.237"
   style="fill:none"
   d="m 130.725,69.610001 c 0,1.787745 -1.44926,3.237 -3.237,3.237 -1.78775,0 -3.237,-1.449255 -3.237,-3.237 0,-1.787746 1.44925,-3.237 3.237,-3.237 1.78774,0 3.237,1.449254 3.237,3.237 z" />
	<circle
   cx="114.024"
   cy="68.194"
   r="3.237"
   id="circle23"
   sodipodi:cx="114.024"
   sodipodi:cy="68.194"
   sodipodi:rx="3.237"
   sodipodi:ry="3.237"
   style="fill:none"
   d="m 117.261,68.194 c 0,1.787746 -1.44925,3.237 -3.237,3.237 -1.78774,0 -3.237,-1.449254 -3.237,-3.237 0,-1.787745 1.44926,-3.237 3.237,-3.237 1.78775,0 3.237,1.449255 3.237,3.237 z" />
	<path
   d="m 79.779,86.969 c -0.491,0.124 -0.991,0.233 -1.508,0.309 -6.218,0.913 -11.81,-2.101 -12.489,-6.731 l 22.517,-3.306 c 0.286,1.945 -0.351,3.863 -1.635,5.505 2.745,-1.152 5.722,-1.853 8.839,-2.018 C 96.284,78.07 96.527,75.21 96.099,72.29 94.509,61.462 84.442,53.974 73.615,55.563 62.788,57.153 55.299,67.219 56.889,78.047 c 1.295,8.821 8.217,15.422 16.592,16.708 1.594,-2.983 3.739,-5.621 6.298,-7.786 z m 2.025,-22.221 c 1.769,-0.26 3.413,0.964 3.673,2.732 0.26,1.768 -0.963,3.413 -2.732,3.673 -1.769,0.26 -3.414,-0.963 -3.673,-2.732 -0.26,-1.769 0.963,-3.413 2.732,-3.673 z m -13.393,1.967 c 1.769,-0.26 3.413,0.964 3.672,2.732 0.26,1.769 -0.963,3.413 -2.732,3.673 -1.77,0.26 -3.413,-0.963 -3.673,-2.732 -0.26,-1.769 0.964,-3.414 2.733,-3.673 z"
   id="path25"
   inkscape:connector-curvature="0"
   style="fill:#ffffff;fill-opacity:1" />
	<path
   d="m 122.169,55.462 c -10.884,-1.145 -20.634,6.751 -21.779,17.634 -0.29,2.756 0.009,5.437 0.78,7.926 8.441,1.35 15.538,6.661 19.35,13.95 9.84,-0.198 18.228,-7.688 19.283,-17.731 1.145,-10.884 -6.75,-20.635 -17.634,-21.779 z m 2.1,13.809 c 0.188,-1.778 1.779,-3.068 3.558,-2.881 1.777,0.187 3.066,1.779 2.881,3.558 -0.188,1.778 -1.779,3.067 -3.558,2.881 -1.779,-0.186 -3.069,-1.78 -2.881,-3.558 z m -13.464,-1.416 c 0.188,-1.778 1.781,-3.068 3.559,-2.881 1.778,0.187 3.067,1.78 2.881,3.558 -0.188,1.778 -1.78,3.068 -3.559,2.88 -1.779,-0.186 -3.067,-1.779 -2.881,-3.557 z m 8.012,19.485 c -6.251,-0.657 -10.921,-4.963 -10.432,-9.617 l 22.635,2.38 c -0.49,4.654 -5.954,7.895 -12.203,7.237 z"
   id="path27"
   inkscape:connector-curvature="0"
   style="fill:#ffffff;fill-opacity:1" />
	<path
   d="m 96.515,130.559 c 12.856,0.166 23.414,-10.122 23.581,-22.979 C 120.263,94.723 109.974,84.165 97.117,83.998 84.26,83.831 73.701,94.119 73.535,106.976 c -0.167,12.858 10.122,23.416 22.98,23.583 z m 8.398,-34.384 c 2.1,0.027 3.779,1.752 3.754,3.853 -0.027,2.1 -1.752,3.781 -3.853,3.754 -2.1,-0.027 -3.782,-1.752 -3.753,-3.852 0.028,-2.102 1.751,-3.782 3.852,-3.755 z m 5.213,15.7 c -0.07,5.498 -6.114,9.877 -13.497,9.781 -7.384,-0.095 -13.312,-4.63 -13.24,-10.128 l 26.737,0.347 z M 89.009,95.969 c 2.1,0.027 3.78,1.752 3.753,3.853 -0.027,2.101 -1.751,3.781 -3.852,3.753 -2.102,-0.027 -3.781,-1.752 -3.754,-3.852 0.027,-2.101 1.753,-3.782 3.853,-3.754 z"
   id="path29"
   inkscape:connector-curvature="0"
   style="fill:#ffffff;fill-opacity:1" />
</g>
</svg>