<?xml version="1.0" encoding="UTF-8" standalone="no"?>
<svg width="220px" height="208px" viewBox="0 0 220 208" version="1.1" xmlns="http://www.w3.org/2000/svg" xmlns:xlink="http://www.w3.org/1999/xlink" xmlns:sketch="http://www.bohemiancoding.com/sketch/ns">
    <title>logo2</title>
    <description>Created with Sketch (http://www.bohemiancoding.com/sketch)</description>
    <defs></defs>
    <g id="Page-1" stroke="none" stroke-width="1" fill="none" fill-rule="evenodd" sketch:type="MSPage">
        <g id="logo" sketch:type="MSLayerGroup" fill-opacity="0.4" fill="#D0021B">
            <path d="M151,80 L0,168 L69,208 L220,120 L151,80 Z" id="Shape" sketch:type="MSShapeGroup"></path>
            <path d="M151,0 L220,40 L220,120 L151,80 L151,0 Z" id="Shape" sketch:type="MSShapeGroup"></path>
            <path d="M0,88 L151,0 L151,80 L0,168 L0,88 Z" id="Shape" sketch:type="MSShapeGroup"></path>
            <path d="M69,128 L220,40 L220,120 L69,208 L69,128 Z" id="Shape" sketch:type="MSShapeGroup"></path>
            <path d="M0,88 L151,0 L220,40 L69,128 L0,88 Z" id="Shape" sketch:type="MSShapeGroup"></path>
            <path d="M0,88 L69,128 L69,208 L0,168 L0,88 Z" id="Shape" sketch:type="MSShapeGroup"></path>
        </g>
    </g>
</svg>